<?xml version="1.0" encoding="UTF-8" standalone="no"?>
<!DOCTYPE svg PUBLIC "-//W3C//DTD SVG 1.1//EN" "http://www.w3.org/Graphics/SVG/1.1/DTD/svg11.dtd">
<svg width="100%" height="100%" viewBox="0 0 1508 754" version="1.1" xmlns="http://www.w3.org/2000/svg" xmlns:xlink="http://www.w3.org/1999/xlink" xml:space="preserve" xmlns:serif="http://www.serif.com/" style="fill-rule:evenodd;clip-rule:evenodd;stroke-linejoin:round;stroke-miterlimit:2;">
    <g id="Capa1">
        <g id="ginterior" transform="matrix(2.83509,-2.77556e-16,2.77556e-16,2.83509,-2382.96,-547.024)">
            <circle cx="902.186" cy="450" r="8.872" style="fill:rgb(235,235,235);"/>
        </g>
        <g id="gmedio" transform="matrix(2.83509,-2.77556e-16,2.77556e-16,2.83509,-2432.19,-548.144)">
            <circle cx="902.186" cy="450" r="8.872" style="fill:rgb(235,235,235);"/>
        </g>
        <g id="gexterior" transform="matrix(2.83509,-2.77556e-16,2.77556e-16,2.83509,-2482.45,-550.334)">
            <circle cx="902.186" cy="450" r="8.872" style="fill:rgb(235,235,235);"/>
        </g>
        <g id="gbandera" transform="matrix(2.83509,-2.77556e-16,2.77556e-16,2.83509,-2532.63,-552.614)">
            <circle cx="902.186" cy="450" r="8.872" style="fill:rgb(235,235,235);"/>
        </g>
        <g transform="matrix(0.0982536,0,0,0.0982536,25.1529,723.176)">
            <g transform="matrix(1,0,0,1,-256,-256)">
                <clipPath id="_clip1">
                    <rect x="0" y="0" width="512" height="512"/>
                </clipPath>
                <g clip-path="url(#_clip1)">
                    <path d="M0,256C0,287.3 5.6,317.3 16,345L256,356.2L496,345C517.34,287.601 517.34,224.399 496,167L256,155.8L16,167C5.418,195.479 -0.001,225.618 0,256Z" style="fill:rgb(51,51,51);fill-rule:nonzero;"/>
                    <path d="M256,0C149.198,0.013 53.13,66.86 16,167L496,167C458.87,66.86 362.802,0.013 256,0Z" style="fill:rgb(0,82,180);fill-rule:nonzero;"/>
                    <path d="M496,345L16,345C53.158,445.107 149.219,511.916 256,511.916C362.781,511.916 458.842,445.107 496,345Z" style="fill:rgb(238,238,238);fill-rule:nonzero;"/>
                </g>
            </g>
        </g>
    </g>
    <g id="Capa2">
        <g id="ginterior1" serif:id="ginterior" transform="matrix(2.83509,-8.32667e-17,8.32667e-17,2.83509,-2378.56,-597.407)">
            <circle cx="902.186" cy="450" r="8.872" style="fill:rgb(235,235,235);"/>
        </g>
        <g id="gmedio1" serif:id="gmedio" transform="matrix(2.83509,-8.32667e-17,8.32667e-17,2.83509,-2427.5,-602.813)">
            <circle cx="902.186" cy="450" r="8.872" style="fill:rgb(235,235,235);"/>
        </g>
        <g id="gexterior1" serif:id="gexterior" transform="matrix(2.83509,-8.32667e-17,8.32667e-17,2.83509,-2477.38,-609.376)">
            <circle cx="902.186" cy="450" r="8.872" style="fill:rgb(235,235,235);"/>
        </g>
        <g id="gbandera1" serif:id="gbandera" transform="matrix(2.83509,-8.32667e-17,8.32667e-17,2.83509,-2527.17,-616.02)">
            <circle cx="902.186" cy="450" r="8.872" style="fill:rgb(235,235,235);"/>
        </g>
        <g transform="matrix(0.0982536,0,0,0.0982536,30.6085,661.462)">
            <g transform="matrix(1,0,0,1,-256,-256)">
                <circle cx="256" cy="256" r="256" style="fill:rgb(238,238,238);"/>
                <circle cx="256" cy="256" r="111.3" style="fill:rgb(216,0,39);"/>
            </g>
        </g>
    </g>
    <g id="Capa3">
        <g id="ginterior2" serif:id="ginterior" transform="matrix(2.83509,1.11022e-16,-1.11022e-16,2.83509,-2369.78,-647.214)">
            <circle cx="902.186" cy="450" r="8.872" style="fill:rgb(235,235,235);"/>
        </g>
        <g id="gmedio2" serif:id="gmedio" transform="matrix(2.83509,1.11022e-16,-1.11022e-16,2.83509,-2418.07,-656.866)">
            <circle cx="902.186" cy="450" r="8.872" style="fill:rgb(235,235,235);"/>
        </g>
        <g id="gexterior2" serif:id="gexterior" transform="matrix(2.83509,1.11022e-16,-1.11022e-16,2.83509,-2467.18,-667.75)">
            <circle cx="902.186" cy="450" r="8.872" style="fill:rgb(235,235,235);"/>
        </g>
        <g id="gbandera2" serif:id="gbandera" transform="matrix(2.83509,1.11022e-16,-1.11022e-16,2.83509,-2516.2,-678.709)">
            <circle cx="902.186" cy="450" r="8.872" style="fill:rgb(235,235,235);"/>
        </g>
        <g transform="matrix(0.0982536,0,0,0.0982536,41.5738,597.081)">
            <g transform="matrix(1,0,0,1,-256,-256)">
                <circle cx="256" cy="256" r="256" style="fill:rgb(238,238,238);"/>
                <path d="M345,256C345,278.3 305.2,334 256,334C206.8,334 167,278.3 167,256C167,207.176 207.176,167 256,167C304.824,167 345,207.176 345,256Z" style="fill:rgb(216,0,39);fill-rule:nonzero;"/>
                <path d="M345,256C345,304.824 304.824,345 256,345C207.176,345 167,304.824 167,256" style="fill:rgb(0,82,180);fill-rule:nonzero;"/>
                <path d="M350.4,334.7L374.1,311.1L389.8,326.8L366.2,350.4L350.4,334.7ZM311.1,374.1L334.7,350.4L350.4,366.2L326.8,389.8L311.1,374.1ZM397.7,381.9L421.3,358.3L437,374L413.4,397.7L397.7,381.9ZM358.3,421.3L381.9,397.7L397.7,413.4L374,437L358.3,421.3ZM374.1,358.3L397.7,334.7L413.4,350.4L389.8,374.1L374.1,358.3ZM334.7,397.7L358.3,374.1L374.1,389.8L350.4,413.4L334.7,397.7ZM397.7,177.3L334.7,114.3L350.5,98.6L413.5,161.6L397.7,177.3ZM334.7,161.6L311.1,137.9L326.8,122.2L350.5,145.8L334.7,161.6ZM374.1,200.9L350.4,177.3L366.2,161.6L389.8,185.2L374.1,200.9ZM381.9,114.3L358.3,90.7L374,75L397.7,98.6L381.9,114.3ZM421.3,153.7L397.7,130L413.4,114.2L437,138L421.3,153.7ZM90.7,358.3L153.7,421.3L137.9,437L74.9,374L90.7,358.3ZM153.7,374L177.3,397.7L161.6,413.4L137.9,389.8L153.7,374ZM114.3,334.7L137.9,358.3L122.2,374.1L98.6,350.4L114.3,334.7ZM137.9,311.1L200.9,374.1L185.2,389.8L122.2,326.8L137.9,311.1ZM153.7,90.7L90.7,153.7L75,137.9L138,74.9L153.7,90.7ZM177.3,114.3L114.3,177.3L98.6,161.5L161.6,98.5L177.3,114.3ZM200.9,137.9L137.9,200.9L122.2,185.2L185.2,122.2L200.9,137.9Z" style="fill:rgb(51,51,51);fill-rule:nonzero;"/>
            </g>
        </g>
    </g>
    <g id="Capa4">
        <g id="ginterior3" serif:id="ginterior" transform="matrix(2.83509,2.22045e-16,-2.22045e-16,2.83509,-2356.69,-696.067)">
            <circle cx="902.186" cy="450" r="8.872" style="fill:rgb(235,235,235);"/>
        </g>
        <g id="gmedio3" serif:id="gmedio" transform="matrix(2.83509,2.22045e-16,-2.22045e-16,2.83509,-2403.96,-709.891)">
            <circle cx="902.186" cy="450" r="8.872" style="fill:rgb(235,235,235);"/>
        </g>
        <g id="gexterior3" serif:id="gexterior" transform="matrix(2.83509,2.22045e-16,-2.22045e-16,2.83509,-2451.94,-725.015)">
            <circle cx="902.186" cy="450" r="8.872" style="fill:rgb(235,235,235);"/>
        </g>
        <g id="gbandera3" serif:id="gbandera" transform="matrix(2.83509,2.22045e-16,-2.22045e-16,2.83509,-2499.82,-740.204)">
            <circle cx="902.186" cy="450" r="8.872" style="fill:rgb(235,235,235);"/>
        </g>
        <g transform="matrix(0.0982536,0,0,0.0982536,57.9612,535.586)">
            <g transform="matrix(1,0,0,1,-256,-256)">
                <clipPath id="_clip2">
                    <rect x="0" y="0" width="512" height="512"/>
                </clipPath>
                <g clip-path="url(#_clip2)">
                    <circle cx="256" cy="256" r="256" style="fill:rgb(238,238,238);"/>
                    <path d="M512,256C512.023,157.894 455.649,68.053 367.3,25.4L367.3,486.6C455.649,443.947 512.023,354.106 512,256ZM0,256C-0.023,354.106 56.351,443.947 144.7,486.6L144.7,25.4C56.351,68.053 -0.023,157.894 -0,256ZM300.5,289.4L345,267L322.8,256L322.8,233.7L278.3,256L300.5,211.5L278.3,211.5L256,178L233.7,211.4L211.5,211.4L233.7,255.9L189.2,233.6L189.2,256L167,267.1L211.5,289.4L200.3,311.7L245,311.7L245,345L267,345L267,311.7L311.6,311.7L300.5,289.4Z" style="fill:rgb(216,0,39);fill-rule:nonzero;"/>
                </g>
            </g>
        </g>
    </g>
    <g id="Capa5">
        <g id="ginterior4" serif:id="ginterior" transform="matrix(2.83509,0,0,2.83509,-2339.4,-743.594)">
            <circle cx="902.186" cy="450" r="8.872" style="fill:rgb(235,235,235);"/>
        </g>
        <g id="gmedio4" serif:id="gmedio" transform="matrix(2.83509,0,0,2.83509,-2385.28,-761.484)">
            <circle cx="902.186" cy="450" r="8.872" style="fill:rgb(235,235,235);"/>
        </g>
        <g id="gexterior4" serif:id="gexterior" transform="matrix(2.83509,0,0,2.83509,-2431.76,-780.732)">
            <circle cx="902.186" cy="450" r="8.872" style="fill:rgb(235,235,235);"/>
        </g>
        <g id="gbandera4" serif:id="gbandera" transform="matrix(2.83509,0,0,2.83509,-2478.13,-800.037)">
            <circle cx="902.186" cy="450" r="8.872" style="fill:rgb(235,235,235);"/>
        </g>
        <g transform="matrix(0.0982536,0,0,0.0982536,79.6459,475.753)">
            <g transform="matrix(1,0,0,1,-256,-256)">
                <circle cx="256" cy="256" r="256" style="fill:rgb(238,238,238);"/>
                <path d="M509.8,222.6L200.3,222.6L200.3,6.1C177.004,11.263 154.55,19.679 133.6,31.1L133.6,222.6L2.2,222.6C-0.692,244.773 -0.692,267.227 2.2,289.4L133.6,289.4L133.6,480.9C154.55,492.321 177.004,500.737 200.3,505.9L200.3,289.4L509.8,289.4C512.688,267.227 512.688,244.773 509.8,222.6Z" style="fill:rgb(0,82,180);fill-rule:nonzero;"/>
            </g>
        </g>
    </g>
    <g id="Capa6">
        <g id="ginterior5" serif:id="ginterior" transform="matrix(2.83509,0,0,2.83509,-2318.03,-789.432)">
            <circle cx="902.186" cy="450" r="8.872" style="fill:rgb(235,235,235);"/>
        </g>
        <g id="gmedio5" serif:id="gmedio" transform="matrix(2.83509,0,0,2.83509,-2362.18,-811.253)">
            <circle cx="902.186" cy="450" r="8.872" style="fill:rgb(235,235,235);"/>
        </g>
        <g id="gexterior5" serif:id="gexterior" transform="matrix(2.83509,0,0,2.83509,-2406.8,-834.479)">
            <circle cx="902.186" cy="450" r="8.872" style="fill:rgb(235,235,235);"/>
        </g>
        <g id="gbandera5" serif:id="gbandera" transform="matrix(2.83509,0,0,2.83509,-2451.32,-857.752)">
            <circle cx="902.186" cy="450" r="8.872" style="fill:rgb(235,235,235);"/>
        </g>
        <g transform="matrix(0.0982536,0,0,0.0982536,106.463,418.038)">
            <g transform="matrix(1,0,0,1,-256,-256)">
                <circle cx="256" cy="256" r="256" style="fill:rgb(238,238,238);"/>
                <path d="M512,256C512,396.437 396.437,512 256,512C115.563,512 0,396.437 0,256" style="fill:rgb(216,0,39);fill-rule:nonzero;"/>
            </g>
        </g>
    </g>
    <g id="Capa7">
        <g id="ginterior6" serif:id="ginterior" transform="matrix(2.83509,-2.22045e-16,2.22045e-16,2.83509,-2292.75,-833.234)">
            <circle cx="902.186" cy="450" r="8.872" style="fill:rgb(235,235,235);"/>
        </g>
        <g id="gmedio6" serif:id="gmedio" transform="matrix(2.83509,-2.22045e-16,2.22045e-16,2.83509,-2334.82,-858.819)">
            <circle cx="902.186" cy="450" r="8.872" style="fill:rgb(235,235,235);"/>
        </g>
        <g id="gexterior6" serif:id="gexterior" transform="matrix(2.83509,-2.22045e-16,2.22045e-16,2.83509,-2377.25,-885.846)">
            <circle cx="902.186" cy="450" r="8.872" style="fill:rgb(235,235,235);"/>
        </g>
        <g id="gbandera6" serif:id="gbandera" transform="matrix(2.83509,-2.22045e-16,2.22045e-16,2.83509,-2419.57,-912.91)">
            <circle cx="902.186" cy="450" r="8.872" style="fill:rgb(235,235,235);"/>
        </g>
        <g transform="matrix(0.0982536,0,0,0.0982536,138.208,362.88)">
            <g transform="matrix(1,0,0,1,-256,-256)">
                <circle cx="256" cy="256" r="256" style="fill:rgb(238,238,238);"/>
                <path d="M512,256C511.987,149.198 445.14,53.13 345,16L345,496C445.14,458.87 511.987,362.802 512,256Z" style="fill:rgb(255,152,17);fill-rule:nonzero;"/>
                <path d="M0,256C0.013,362.802 66.86,458.87 167,496L167,16C66.86,53.13 0.013,149.198 0,256Z" style="fill:rgb(109,165,68);fill-rule:nonzero;"/>
            </g>
        </g>
    </g>
    <g id="Capa8">
        <g id="ginterior7" serif:id="ginterior" transform="matrix(2.83509,-4.44089e-16,4.44089e-16,2.83509,-2263.74,-874.665)">
            <circle cx="902.186" cy="450" r="8.872" style="fill:rgb(235,235,235);"/>
        </g>
        <g id="gmedio7" serif:id="gmedio" transform="matrix(2.83509,-4.44089e-16,4.44089e-16,2.83509,-2303.43,-903.82)">
            <circle cx="902.186" cy="450" r="8.872" style="fill:rgb(235,235,235);"/>
        </g>
        <g id="gexterior7" serif:id="gexterior" transform="matrix(2.83509,-4.44089e-16,4.44089e-16,2.83509,-2343.34,-934.442)">
            <circle cx="902.186" cy="450" r="8.872" style="fill:rgb(235,235,235);"/>
        </g>
        <g id="gbandera7" serif:id="gbandera" transform="matrix(2.83509,-4.44089e-16,4.44089e-16,2.83509,-2383.14,-965.092)">
            <circle cx="902.186" cy="450" r="8.872" style="fill:rgb(235,235,235);"/>
        </g>
        <g transform="matrix(0.0982536,0,0,0.0982536,174.639,310.699)">
            <g transform="matrix(1,0,0,1,-256,-256)">
                <clipPath id="_clip3">
                    <rect x="0" y="0" width="512" height="512"/>
                </clipPath>
                <g clip-path="url(#_clip3)">
                    <circle cx="256" cy="256" r="256" style="fill:rgb(238,238,238);"/>
                    <path d="M496,167L222.7,167L222.7,100.2L89,100.2L89,167L16,167C-5.34,224.399 -5.34,287.601 16,345L256,367.3L496,345C517.331,287.6 517.331,224.4 496,167Z" style="fill:rgb(0,82,180);fill-rule:nonzero;"/>
                    <path d="M256,512C362.802,511.987 458.87,445.14 496,345L16,345C53.13,445.14 149.198,511.987 256,512Z" style="fill:rgb(216,0,39);fill-rule:nonzero;"/>
                    <path d="M89,167L89,189.2C89,240.3 155.8,256 155.8,256C155.8,256 222.6,240.3 222.6,189.2L222.6,167L200.3,189.2L155.8,155.8L111.3,189.2L89,167Z" style="fill:rgb(238,238,238);fill-rule:nonzero;"/>
                </g>
            </g>
        </g>
    </g>
    <g id="Capa9">
        <g id="ginterior8" serif:id="ginterior" transform="matrix(2.83509,0,0,2.83509,-2231.24,-913.411)">
            <circle cx="902.186" cy="450" r="8.872" style="fill:rgb(235,235,235);"/>
        </g>
        <g id="gmedio8" serif:id="gmedio" transform="matrix(2.83509,0,0,2.83509,-2268.23,-945.914)">
            <circle cx="902.186" cy="450" r="8.872" style="fill:rgb(235,235,235);"/>
        </g>
        <g id="gexterior8" serif:id="gexterior" transform="matrix(2.83509,0,0,2.83509,-2305.32,-979.898)">
            <circle cx="902.186" cy="450" r="8.872" style="fill:rgb(235,235,235);"/>
        </g>
        <g id="gbandera8" serif:id="gbandera" transform="matrix(2.83509,0,0,2.83509,-2342.3,-1013.9)">
            <circle cx="902.186" cy="450" r="8.872" style="fill:rgb(235,235,235);"/>
        </g>
        <g transform="matrix(0.0982536,0,0,0.0982536,215.48,261.891)">
            <g transform="matrix(1,0,0,1,-256,-256)">
                <clipPath id="_clip4">
                    <rect x="0" y="0" width="512" height="512"/>
                </clipPath>
                <g clip-path="url(#_clip4)">
                    <path d="M512,256C512,396.437 396.437,512 256,512C115.563,512 0,396.437 0,256L256,0C396.437,-0 512,115.563 512,256Z" style="fill:rgb(0,82,180);fill-rule:nonzero;"/>
                    <path d="M256,0C115.563,0 -0,115.563 0,256L133.6,256L133.6,180.8L208.8,256L256,256L256,208.8L180.8,133.6L256,133.6L256,0ZM381.8,91.5L370.5,126.5L333.8,126.5L363.5,147.9L352.2,182.9L381.8,161.2L411.5,182.8L400,148L429.7,126.5L393,126.5L381.7,91.6L381.8,91.5ZM443.1,164L431.8,199L395.1,199L424.8,220.4L413.5,255.4L443.1,233.7L472.8,255.3L461.4,220.4L491.1,198.9L454.4,198.9L443.1,164ZM320.3,174.3L309,209.2L272.3,209.2L302,230.7L290.7,265.6L320.3,244L350,265.6L338.6,230.6L368.3,209.1L331.6,209.1L320.3,174.3ZM379.4,304L368.1,338.9L331.4,338.9L361.1,360.4L349.8,395.3L379.4,373.7L409.1,395.3L397.7,360.3L427.4,338.8L390.7,338.8L379.4,304Z" style="fill:rgb(238,238,238);fill-rule:nonzero;"/>
                    <path d="M129.5,33.4C89.433,56.236 56.236,89.433 33.4,129.5L33.4,256L100.2,256L100.2,100.2L256,100.2L256,33.4L129.5,33.4ZM381.8,116.8L376.2,134.2L357.8,134.2L372.7,145L367,162.4L381.8,151.6L396.7,162.4L391,145L405.8,134.2L387.5,134.2L381.8,116.8ZM133.6,133.6L256,256L256,224.5L165,133.5L133.6,133.5L133.6,133.6ZM443,189.3L437.4,206.7L419,206.7L433.9,217.5L428.2,234.9L443,224.1L458,235L452.3,217.6L467.1,206.8L448.8,206.8L443.1,189.4L443,189.3ZM320.2,199.5L314.6,217L296.2,217L311.1,227.7L305.4,245.2L320.2,234.4L335.1,245.2L329.4,227.7L344.2,217L326,217L320.3,199.5L320.2,199.5ZM379.3,329.2L373.7,346.7L355.3,346.7L370.2,357.4L364.5,374.9L379.3,364.1L394.1,374.9L388.5,357.4L403.3,346.7L385,346.7L379.3,329.2Z" style="fill:rgb(216,0,39);fill-rule:nonzero;"/>
                </g>
            </g>
        </g>
    </g>
    <g id="Capa10">
        <g id="ginterior9" serif:id="ginterior" transform="matrix(2.83509,0,0,2.83509,-2195.48,-949.176)">
            <circle cx="902.186" cy="450" r="8.872" style="fill:rgb(235,235,235);"/>
        </g>
        <g id="gmedio9" serif:id="gmedio" transform="matrix(2.83509,0,0,2.83509,-2229.5,-984.779)">
            <circle cx="902.186" cy="450" r="8.872" style="fill:rgb(235,235,235);"/>
        </g>
        <g id="gexterior9" serif:id="gexterior" transform="matrix(2.83509,0,0,2.83509,-2263.49,-1021.87)">
            <circle cx="902.186" cy="450" r="8.872" style="fill:rgb(235,235,235);"/>
        </g>
        <g id="gbandera9" serif:id="gbandera" transform="matrix(2.83509,0,0,2.83509,-2297.36,-1058.96)">
            <circle cx="902.186" cy="450" r="8.872" style="fill:rgb(235,235,235);"/>
        </g>
        <g transform="matrix(0.0982536,0,0,0.0982536,260.42,216.829)">
            <g transform="matrix(1,0,0,1,-256,-256)">
                <circle cx="256" cy="256" r="256" style="fill:rgb(238,238,238);"/>
                <path d="M256,0C149.198,0.013 53.13,66.86 16,167L496,167C458.87,66.86 362.802,0.013 256,0Z" style="fill:rgb(162,0,29);fill-rule:nonzero;"/>
                <path d="M256,512C362.802,511.987 458.87,445.14 496,345L16,345C53.13,445.14 149.198,511.987 256,512Z" style="fill:rgb(0,82,180);fill-rule:nonzero;"/>
            </g>
        </g>
    </g>
    <g id="Capa11">
        <g id="ginterior10" serif:id="ginterior" transform="matrix(2.83509,6.66134e-16,-6.66134e-16,2.83509,-2156.74,-981.689)">
            <circle cx="902.186" cy="450" r="8.872" style="fill:rgb(235,235,235);"/>
        </g>
        <g id="gmedio10" serif:id="gmedio" transform="matrix(2.83509,6.66134e-16,-6.66134e-16,2.83509,-2187.53,-1020.12)">
            <circle cx="902.186" cy="450" r="8.872" style="fill:rgb(235,235,235);"/>
        </g>
        <g id="gexterior10" serif:id="gexterior" transform="matrix(2.83509,6.66134e-16,-6.66134e-16,2.83509,-2218.15,-1060.03)">
            <circle cx="902.186" cy="450" r="8.872" style="fill:rgb(235,235,235);"/>
        </g>
        <g id="gbandera10" serif:id="gbandera" transform="matrix(2.83509,6.66134e-16,-6.66134e-16,2.83509,-2248.66,-1099.94)">
            <circle cx="902.186" cy="450" r="8.872" style="fill:rgb(235,235,235);"/>
        </g>
        <g transform="matrix(0.0982536,0,0,0.0982536,309.115,175.854)">
            <g transform="matrix(1,0,0,1,-256,-256)">
                <clipPath id="_clip5">
                    <rect x="0" y="0" width="512" height="512"/>
                </clipPath>
                <g clip-path="url(#_clip5)">
                    <circle cx="256" cy="256" r="256" style="fill:rgb(255,218,68);"/>
                    <path d="M200.3,222.6L509.8,222.6C493.117,95.82 383.873,0.006 256,0C237.27,-0.036 218.592,1.976 200.3,6L200.3,222.6ZM133.6,222.6L133.6,31.1C61.779,70.244 12.882,141.505 2.2,222.6L133.6,222.6ZM133.6,289.4L2.2,289.4C12.882,370.495 61.779,441.756 133.6,480.9L133.6,289.4ZM200.3,289.4L200.3,505.9C218.589,509.958 237.266,512.004 256,512C383.873,511.994 493.117,416.18 509.8,289.4L200.3,289.4Z" style="fill:rgb(0,82,180);fill-rule:nonzero;"/>
                </g>
            </g>
        </g>
    </g>
    <g id="Capa12">
        <g id="ginterior11" serif:id="ginterior" transform="matrix(2.83509,2.22045e-16,-2.22045e-16,2.83509,-2115.31,-1010.7)">
            <circle cx="902.186" cy="450" r="8.872" style="fill:rgb(235,235,235);"/>
        </g>
        <g id="gmedio11" serif:id="gmedio" transform="matrix(2.83509,2.22045e-16,-2.22045e-16,2.83509,-2142.63,-1051.67)">
            <circle cx="902.186" cy="450" r="8.872" style="fill:rgb(235,235,235);"/>
        </g>
        <g id="gexterior11" serif:id="gexterior" transform="matrix(2.83509,2.22045e-16,-2.22045e-16,2.83509,-2169.67,-1094.1)">
            <circle cx="902.186" cy="450" r="8.872" style="fill:rgb(235,235,235);"/>
        </g>
        <g id="gbandera11" serif:id="gbandera" transform="matrix(2.83509,2.22045e-16,-2.22045e-16,2.83509,-2196.58,-1136.51)">
            <circle cx="902.186" cy="450" r="8.872" style="fill:rgb(235,235,235);"/>
        </g>
        <g transform="matrix(0.0982536,0,0,0.0982536,361.197,139.28)">
            <g transform="matrix(1,0,0,1,-256,-256)">
                <clipPath id="_clip6">
                    <rect x="0" y="0" width="512" height="512"/>
                </clipPath>
                <g clip-path="url(#_clip6)">
                    <circle cx="256" cy="256" r="256" style="fill:rgb(238,238,238);"/>
                    <path d="M200.3,222.6L509.8,222.6C493.117,95.82 383.873,0.006 256,0C237.27,-0.036 218.592,1.976 200.3,6L200.3,222.6ZM133.6,222.6L133.6,31.1C61.779,70.244 12.882,141.505 2.2,222.6L133.6,222.6ZM133.6,289.4L2.2,289.4C12.882,370.495 61.779,441.756 133.6,480.9L133.6,289.4ZM200.3,289.4L200.3,505.9C218.589,509.958 237.266,512.004 256,512C383.873,511.994 493.117,416.18 509.8,289.4L200.3,289.4Z" style="fill:rgb(216,0,39);fill-rule:nonzero;"/>
                </g>
            </g>
        </g>
    </g>
    <g id="Capa13">
        <g id="ginterior12" serif:id="ginterior" transform="matrix(2.83509,-2.22045e-16,2.22045e-16,2.83509,-2071.52,-1035.99)">
            <circle cx="902.186" cy="450" r="8.872" style="fill:rgb(235,235,235);"/>
        </g>
        <g id="gmedio12" serif:id="gmedio" transform="matrix(2.83509,-2.22045e-16,2.22045e-16,2.83509,-2095.16,-1079.19)">
            <circle cx="902.186" cy="450" r="8.872" style="fill:rgb(235,235,235);"/>
        </g>
        <g id="gexterior12" serif:id="gexterior" transform="matrix(2.83509,-2.22045e-16,2.22045e-16,2.83509,-2118.39,-1123.81)">
            <circle cx="902.186" cy="450" r="8.872" style="fill:rgb(235,235,235);"/>
        </g>
        <g id="gbandera12" serif:id="gbandera" transform="matrix(2.83509,-2.22045e-16,2.22045e-16,2.83509,-2141.51,-1168.41)">
            <circle cx="902.186" cy="450" r="8.872" style="fill:rgb(235,235,235);"/>
        </g>
        <g transform="matrix(0.0982536,0,0,0.0982536,416.268,107.384)">
            <g transform="matrix(1,0,0,1,-256,-256)">
                <clipPath id="_clip7">
                    <rect x="0" y="0" width="512" height="512"/>
                </clipPath>
                <g clip-path="url(#_clip7)">
                    <path d="M16,345C53.158,445.107 149.219,511.916 256,511.916C362.781,511.916 458.842,445.107 496,345L256,322.8L16,345Z" style="fill:rgb(255,218,68);fill-rule:nonzero;"/>
                    <path d="M256,0C149.198,0.013 53.13,66.86 16,167L256,189.2L496,167C458.87,66.86 362.802,0.013 256,0Z" style="fill:rgb(51,51,51);fill-rule:nonzero;"/>
                    <path d="M16,167C-5.331,224.4 -5.331,287.6 16,345L496,345C517.34,287.601 517.34,224.399 496,167L16,167Z" style="fill:rgb(216,0,39);fill-rule:nonzero;"/>
                </g>
            </g>
        </g>
    </g>
    <g id="Capa14">
        <g id="ginterior13" serif:id="ginterior" transform="matrix(2.83509,0,0,2.83509,-2025.68,-1057.37)">
            <circle cx="902.186" cy="450" r="8.872" style="fill:rgb(235,235,235);"/>
        </g>
        <g id="gmedio13" serif:id="gmedio" transform="matrix(2.83509,0,0,2.83509,-2045.47,-1102.46)">
            <circle cx="902.186" cy="450" r="8.872" style="fill:rgb(235,235,235);"/>
        </g>
        <g id="gexterior13" serif:id="gexterior" transform="matrix(2.83509,0,0,2.83509,-2064.73,-1148.94)">
            <circle cx="902.186" cy="450" r="8.872" style="fill:rgb(235,235,235);"/>
        </g>
        <g id="gbandera13" serif:id="gbandera" transform="matrix(2.83509,0,0,2.83509,-2083.87,-1195.38)">
            <circle cx="902.186" cy="450" r="8.872" style="fill:rgb(235,235,235);"/>
        </g>
        <g transform="matrix(0.0982536,0,0,0.0982536,473.91,80.4096)">
            <g transform="matrix(1,0,0,1,-256,-256)">
                <clipPath id="_clip8">
                    <rect x="0" y="0" width="512" height="512"/>
                </clipPath>
                <g clip-path="url(#_clip8)">
                    <path d="M345,16C287.6,-5.331 224.4,-5.331 167,16L144.7,256L167,496C224.399,517.34 287.601,517.34 345,496L367.3,256L345,16Z" style="fill:rgb(255,218,68);fill-rule:nonzero;"/>
                    <path d="M512,256C511.987,149.198 445.14,53.13 345,16L345,496C445.14,458.87 511.987,362.802 512,256Z" style="fill:rgb(216,0,39);fill-rule:nonzero;"/>
                    <path d="M0,256C0.013,362.802 66.86,458.87 167,496L167,16C66.86,53.13 0.013,149.198 0,256Z" style="fill:rgb(51,51,51);fill-rule:nonzero;"/>
                </g>
            </g>
        </g>
    </g>
    <g id="Capa15">
        <g id="ginterior14" serif:id="ginterior" transform="matrix(2.83509,-1.11022e-16,1.11022e-16,2.83509,-1978.16,-1074.67)">
            <circle cx="902.186" cy="450" r="8.872" style="fill:rgb(235,235,235);"/>
        </g>
        <g id="gmedio14" serif:id="gmedio" transform="matrix(2.83509,-1.11022e-16,1.11022e-16,2.83509,-1993.94,-1121.32)">
            <circle cx="902.186" cy="450" r="8.872" style="fill:rgb(235,235,235);"/>
        </g>
        <g id="gexterior14" serif:id="gexterior" transform="matrix(2.83509,-1.11022e-16,1.11022e-16,2.83509,-2009.08,-1169.3)">
            <circle cx="902.186" cy="450" r="8.872" style="fill:rgb(235,235,235);"/>
        </g>
        <g id="gbandera14" serif:id="gbandera" transform="matrix(2.83509,-1.11022e-16,1.11022e-16,2.83509,-2024.1,-1217.23)">
            <circle cx="902.186" cy="450" r="8.872" style="fill:rgb(235,235,235);"/>
        </g>
        <g transform="matrix(0.0982536,0,0,0.0982536,533.683,58.5614)">
            <g transform="matrix(1,0,0,1,-256,-256)">
                <clipPath id="_clip9">
                    <rect x="0" y="0" width="512" height="512"/>
                </clipPath>
                <g clip-path="url(#_clip9)">
                    <path d="M512,256C512,396.437 396.437,512 256,512C115.563,512 0,396.437 0,256L256,0C396.437,-0 512,115.563 512,256Z" style="fill:rgb(0,82,180);fill-rule:nonzero;"/>
                    <g>
                        <path d="M255.3,256L256,256L256,255.3L255.3,256Z" style="fill:rgb(238,238,238);fill-rule:nonzero;"/>
                        <path d="M256,133.6L256,0C115.563,0 -0,115.563 0,256L133.6,256L133.6,180.8L208.8,256L255.3,256L256,255.3L256,208.8L180.8,133.6L256,133.6Z" style="fill:rgb(238,238,238);fill-rule:nonzero;"/>
                    </g>
                    <g>
                        <path d="M129.5,33.4C89.433,56.236 56.236,89.433 33.4,129.5L33.4,256L100.2,256L100.2,100.2L256,100.2L256,33.4L129.5,33.4Z" style="fill:rgb(216,0,39);fill-rule:nonzero;"/>
                        <path d="M256,224.5L165,133.5L133.6,133.5L256,256L256,224.5Z" style="fill:rgb(216,0,39);fill-rule:nonzero;"/>
                    </g>
                    <path d="M154.4,300.5L168.4,329.9L200.2,322.6L186,351.9L211.5,372.1L179.7,379.3L179.8,411.8L154.4,391.5L129,411.8L129,379.3L97.4,372L122.9,351.8L108.7,322.5L140.4,329.8L154.4,300.5ZM383.3,356.2L390.3,370.9L406.2,367.2L399.1,381.8L411.8,392L395.9,395.5L395.9,411.8L383.3,401.6L370.6,411.8L370.6,395.5L354.7,392L367.5,381.8L360.4,367.2L376.3,370.9L383.3,356.2ZM317.9,200.3L324.9,215L340.9,211.4L333.7,226L346.5,236.1L330.5,239.7L330.6,256L317.9,245.8L305.2,256L305.2,239.7L289.4,236.1L302.1,226.1L295.1,211.4L310.9,215L317.9,200.3ZM383.3,111.3L390.3,126L406.2,122.3L399,137L411.7,147L395.8,150.7L395.8,167L383.2,156.8L370.5,167L370.5,150.7L354.6,147.1L367.4,137L360.3,122.3L376.2,126L383.3,111.3ZM440.3,178.1L447.3,192.8L463.3,189.1L456.2,203.8L468.9,213.8L453,217.5L453,233.7L440.4,223.6L427.7,233.7L427.7,217.5L411.8,213.9L424.6,203.8L417.5,189.1L433.3,192.8L440.3,178.1ZM399.6,256L405.2,273L423,273L408.5,283.5L414,300.5L399.5,290L385.1,300.5L390.6,283.5L376.1,273L394.1,273L399.6,256Z" style="fill:rgb(238,238,238);fill-rule:nonzero;"/>
                </g>
            </g>
        </g>
    </g>
    <g id="Capa16">
        <g id="ginterior15" serif:id="ginterior" transform="matrix(2.83509,1.11022e-16,-1.11022e-16,2.83509,-1929.31,-1087.77)">
            <circle cx="902.186" cy="450" r="8.872" style="fill:rgb(235,235,235);"/>
        </g>
        <g id="gmedio15" serif:id="gmedio" transform="matrix(2.83509,1.11022e-16,-1.11022e-16,2.83509,-1940.97,-1135.61)">
            <circle cx="902.186" cy="450" r="8.872" style="fill:rgb(235,235,235);"/>
        </g>
        <g id="gexterior15" serif:id="gexterior" transform="matrix(2.83509,1.11022e-16,-1.11022e-16,2.83509,-1951.86,-1184.72)">
            <circle cx="902.186" cy="450" r="8.872" style="fill:rgb(235,235,235);"/>
        </g>
        <g id="gbandera15" serif:id="gbandera" transform="matrix(2.83509,1.11022e-16,-1.11022e-16,2.83509,-1962.65,-1233.78)">
            <circle cx="902.186" cy="450" r="8.872" style="fill:rgb(235,235,235);"/>
        </g>
        <g transform="matrix(0.0982536,0,0,0.0982536,595.133,42.0058)">
            <g transform="matrix(1,0,0,1,-256,-256)">
                <circle cx="256" cy="256" r="256" style="fill:rgb(216,0,39);"/>
                <path d="M389.6,211.5L300.6,211.5L300.6,122.5L211.5,122.5L211.5,211.5L122.5,211.5L122.5,300.5L211.5,300.5L211.5,389.5L300.5,389.5L300.5,300.5L389.5,300.5L389.6,211.5Z" style="fill:rgb(238,238,238);fill-rule:nonzero;"/>
            </g>
        </g>
    </g>
    <g id="Capa17">
        <g id="ginterior16" serif:id="ginterior" transform="matrix(2.83509,1.11022e-16,-1.11022e-16,2.83509,-1879.5,-1096.55)">
            <circle cx="902.186" cy="450" r="8.872" style="fill:rgb(235,235,235);"/>
        </g>
        <g id="gmedio16" serif:id="gmedio" transform="matrix(2.83509,1.11022e-16,-1.11022e-16,2.83509,-1886.95,-1145.23)">
            <circle cx="902.186" cy="450" r="8.872" style="fill:rgb(235,235,235);"/>
        </g>
        <g id="gexterior16" serif:id="gexterior" transform="matrix(2.83509,1.11022e-16,-1.11022e-16,2.83509,-1893.52,-1195.11)">
            <circle cx="902.186" cy="450" r="8.872" style="fill:rgb(235,235,235);"/>
        </g>
        <g id="gbandera16" serif:id="gbandera" transform="matrix(2.83509,1.11022e-16,-1.11022e-16,2.83509,-1899.99,-1244.92)">
            <circle cx="902.186" cy="450" r="8.872" style="fill:rgb(235,235,235);"/>
        </g>
        <g transform="matrix(0.0982536,0,0,0.0982536,657.791,30.869)">
            <g transform="matrix(1,0,0,1,-256,-256)">
                <clipPath id="_clip10">
                    <rect x="0" y="0" width="512" height="512"/>
                </clipPath>
                <g clip-path="url(#_clip10)">
                    <circle cx="256" cy="256" r="256" style="fill:rgb(238,238,238);"/>
                    <path d="M8.8,322.8C23.515,376.98 55.639,424.849 100.2,459L100.2,322.8L8.8,322.8ZM233.8,511C241.182,511.65 248.589,511.984 256,512C371.325,512.031 473.107,434.13 503.2,322.8L233.7,322.8L233.7,511L233.8,511ZM503.2,189.2C470.955,69.947 356.762,-9.797 233.7,1L233.7,189.2L503.2,189.2ZM100.2,53C55.639,87.151 23.515,135.02 8.8,189.2L100.2,189.2L100.2,53Z" style="fill:rgb(216,0,39);fill-rule:nonzero;"/>
                    <path d="M509.8,222.6L200.3,222.6L200.3,6.1C177.004,11.263 154.55,19.679 133.6,31.1L133.6,222.6L2.2,222.6C-0.692,244.773 -0.692,267.227 2.2,289.4L133.6,289.4L133.6,480.9C154.55,492.321 177.004,500.737 200.3,505.9L200.3,289.4L509.8,289.4C512.688,267.227 512.688,244.773 509.8,222.6Z" style="fill:rgb(0,82,180);fill-rule:nonzero;"/>
                </g>
            </g>
        </g>
    </g>
    <g id="Capa18">
        <g id="ginterior17" serif:id="ginterior" transform="matrix(2.83509,-1.66533e-16,1.66533e-16,2.83509,-1829.12,-1100.97)">
            <circle cx="902.186" cy="450" r="8.872" style="fill:rgb(235,235,235);"/>
        </g>
        <g id="gmedio17" serif:id="gmedio" transform="matrix(2.83509,-1.66533e-16,1.66533e-16,2.83509,-1832.29,-1150.11)">
            <circle cx="902.186" cy="450" r="8.872" style="fill:rgb(235,235,235);"/>
        </g>
        <g id="gexterior17" serif:id="gexterior" transform="matrix(2.83509,-1.66533e-16,1.66533e-16,2.83509,-1834.49,-1200.37)">
            <circle cx="902.186" cy="450" r="8.872" style="fill:rgb(235,235,235);"/>
        </g>
        <g id="gbandera17" serif:id="gbandera" transform="matrix(2.83509,-1.66533e-16,1.66533e-16,2.83509,-1836.6,-1250.55)">
            <circle cx="902.186" cy="450" r="8.872" style="fill:rgb(235,235,235);"/>
        </g>
        <g transform="matrix(0.0982536,0,0,0.0982536,721.183,25.2356)">
            <g transform="matrix(1,0,0,1,-256,-256)">
                <circle cx="256" cy="256" r="256" style="fill:rgb(238,238,238);"/>
                <path d="M233.7,256L75,437C122.989,484.979 188.14,511.961 256,511.961C396.423,511.961 511.979,396.423 512,256L233.7,256Z" style="fill:rgb(216,0,39);fill-rule:nonzero;"/>
                <path d="M75,75C-24.279,174.3 -24.279,337.7 75,437L256,256L75,75Z" style="fill:rgb(0,82,180);fill-rule:nonzero;"/>
            </g>
        </g>
    </g>
    <g id="Capa19">
        <g id="ginterior18" serif:id="ginterior" transform="matrix(2.83509,1.32112e-16,-1.32112e-16,2.83509,-1778.55,-1100.97)">
            <circle cx="902.186" cy="450" r="8.872" style="fill:rgb(235,235,235);"/>
        </g>
        <g id="gmedio18" serif:id="gmedio" transform="matrix(2.83509,1.32112e-16,-1.32112e-16,2.83509,-1777.43,-1150.2)">
            <circle cx="902.186" cy="450" r="8.872" style="fill:rgb(235,235,235);"/>
        </g>
        <g id="gexterior18" serif:id="gexterior" transform="matrix(2.83509,1.32112e-16,-1.32112e-16,2.83509,-1775.24,-1200.46)">
            <circle cx="902.186" cy="450" r="8.872" style="fill:rgb(235,235,235);"/>
        </g>
        <g id="gbandera18" serif:id="gbandera" transform="matrix(2.83509,1.32112e-16,-1.32112e-16,2.83509,-1772.96,-1250.64)">
            <circle cx="902.186" cy="450" r="8.872" style="fill:rgb(235,235,235);"/>
        </g>
        <g transform="matrix(0.0982536,0,0,0.0982536,784.824,25.1529)">
            <g transform="matrix(1,0,0,1,-256,-256)">
                <clipPath id="_clip11">
                    <rect x="0" y="0" width="512" height="512"/>
                </clipPath>
                <g clip-path="url(#_clip11)">
                    <circle cx="256" cy="256" r="256" style="fill:rgb(238,238,238);"/>
                    <path d="M244.9,256L512,256C512,232.9 509,210.5 503.2,189.2L244.9,189.2L244.9,256ZM244.9,122.4L474.4,122.4C458.758,96.908 438.792,74.336 415.4,55.7L244.9,55.7L244.9,122.4ZM256,512C316.2,512 371.6,491.2 415.4,456.3L96.6,456.3C141.853,492.429 198.094,512.082 256,512ZM37.6,389.6L474.4,389.6C487.149,368.827 496.848,346.331 503.2,322.8L8.8,322.8C15.152,346.331 24.851,368.827 37.6,389.6Z" style="fill:rgb(216,0,39);fill-rule:nonzero;"/>
                    <path d="M118.6,40L141.9,40L120.2,55.7L128.5,81.3L106.8,65.5L85.1,81.3L92.3,59.3C73.144,75.231 56.403,93.859 42.6,114.6L50.1,114.6L36.3,124.6C34.143,128.215 32.076,131.883 30.1,135.6L36.7,155.8L24.4,146.8C21.316,153.344 18.513,160.017 16,166.8L23.3,189.1L50,189.1L28.4,205L36.7,230.5L15,214.6L2,224.1C0.676,234.682 0.008,245.336 0,256L256,256L256,0C205.4,0 158.3,14.7 118.6,40ZM128.5,230.4L106.8,214.6L85.1,230.4L93.4,204.9L71.7,189L98.5,189L106.8,163.5L115.1,189L141.9,189L120.2,205L128.5,230.5L128.5,230.4ZM120.2,130.4L128.5,155.8L106.8,140.1L85.1,155.8L93.4,130.3L71.7,114.6L98.5,114.6L106.8,89L115.1,114.6L141.9,114.6L120.2,130.3L120.2,130.4ZM220.3,230.4L198.6,214.6L176.9,230.4L185.2,204.9L163.5,189.1L190.3,189.1L198.6,163.6L206.9,189.1L233.7,189.1L212,205L220.3,230.5L220.3,230.4ZM212,130.4L220.3,155.8L198.6,140.1L176.9,155.8L185.2,130.3L163.5,114.6L190.3,114.6L198.6,89L206.9,114.6L233.7,114.6L212,130.3L212,130.4ZM212,55.7L220.3,81.3L198.6,65.5L177,81.3L185.3,55.7L163.5,40L190.3,40L198.6,14.5L207,40L233.8,40L212,55.7Z" style="fill:rgb(0,82,180);fill-rule:nonzero;"/>
                </g>
            </g>
        </g>
    </g>
    <g id="Capa20">
        <g id="ginterior19" serif:id="ginterior" transform="matrix(2.83509,-3.05311e-16,3.05311e-16,2.83509,-1728.16,-1096.57)">
            <circle cx="902.186" cy="450" r="8.872" style="fill:rgb(235,235,235);"/>
        </g>
        <g id="gmedio19" serif:id="gmedio" transform="matrix(2.83509,-3.05311e-16,3.05311e-16,2.83509,-1722.76,-1145.51)">
            <circle cx="902.186" cy="450" r="8.872" style="fill:rgb(235,235,235);"/>
        </g>
        <g id="gexterior19" serif:id="gexterior" transform="matrix(2.83509,-3.05311e-16,3.05311e-16,2.83509,-1716.19,-1195.39)">
            <circle cx="902.186" cy="450" r="8.872" style="fill:rgb(235,235,235);"/>
        </g>
        <g id="gbandera19" serif:id="gbandera" transform="matrix(2.83509,-3.05311e-16,3.05311e-16,2.83509,-1709.55,-1245.18)">
            <circle cx="902.186" cy="450" r="8.872" style="fill:rgb(235,235,235);"/>
        </g>
        <g transform="matrix(0.0982536,0,0,0.0982536,848.23,30.6085)">
            <g transform="matrix(1,0,0,1,-256,-256)">
                <circle cx="256" cy="256" r="256" style="fill:rgb(238,238,238);"/>
                <path d="M53,100.1C32.562,126.61 17.542,156.887 8.8,189.2L142,189.2L53,100.2L53,100.1ZM503.2,189.2C494.476,156.93 479.491,126.689 459.1,100.2L370.1,189.2L503.2,189.2ZM8.8,322.8C17.524,355.07 32.509,385.311 52.9,411.8L141.9,322.8L8.8,322.8ZM411.8,52.9C385.303,32.544 355.062,17.594 322.8,8.9L322.8,142L411.8,53L411.8,52.9ZM100.2,459.1C126.727,479.467 157.003,494.418 189.3,503.1L189.3,370L100.2,459.1ZM189.2,8.8C156.93,17.524 126.689,32.509 100.2,52.9L189.2,142L189.2,8.8ZM322.8,503.2C355.07,494.476 385.311,479.491 411.8,459.1L322.8,370.1L322.8,503.2ZM370,322.8L459,411.8C479.427,385.319 494.446,355.077 503.2,322.8L370,322.8Z" style="fill:rgb(0,82,180);fill-rule:nonzero;"/>
                <g>
                    <path d="M509.8,222.6L289.4,222.6L289.4,2.2C278.326,0.746 267.169,0.011 256,0C244.7,0 233.5,0.7 222.6,2.2L222.6,222.6L2.2,222.6C0.746,233.674 0.011,244.831 0,256C0,267.3 0.7,278.5 2.2,289.4L222.6,289.4L222.6,509.8C244.773,512.69 267.227,512.69 289.4,509.8L289.4,289.4L509.8,289.4C511.254,278.326 511.989,267.169 512,256C512,244.7 511.3,233.5 509.8,222.6Z" style="fill:rgb(216,0,39);fill-rule:nonzero;"/>
                    <path d="M322.8,322.8L437,437C442.235,431.753 447.239,426.281 452,420.6L354.3,322.8L322.8,322.8ZM189.2,322.8L75,437C80.247,442.235 85.719,447.239 91.4,452L189.2,354.3L189.2,322.8ZM189.2,189.2L75,75C69.765,80.247 64.761,85.719 60,91.4L157.7,189.2L189.2,189.2ZM322.8,189.2L437,75C431.753,69.765 426.281,64.761 420.6,60L322.8,157.7L322.8,189.2Z" style="fill:rgb(216,0,39);fill-rule:nonzero;"/>
                </g>
            </g>
        </g>
    </g>
    <g id="Capa21">
        <g id="ginterior20" serif:id="ginterior" transform="matrix(2.83509,5.55112e-17,-5.55112e-17,2.83509,-1678.35,-1087.79)">
            <circle cx="902.186" cy="450" r="8.872" style="fill:rgb(235,235,235);"/>
        </g>
        <g id="gmedio20" serif:id="gmedio" transform="matrix(2.83509,5.55112e-17,-5.55112e-17,2.83509,-1668.7,-1136.08)">
            <circle cx="902.186" cy="450" r="8.872" style="fill:rgb(235,235,235);"/>
        </g>
        <g id="gexterior20" serif:id="gexterior" transform="matrix(2.83509,5.55112e-17,-5.55112e-17,2.83509,-1657.82,-1185.19)">
            <circle cx="902.186" cy="450" r="8.872" style="fill:rgb(235,235,235);"/>
        </g>
        <g id="gbandera20" serif:id="gbandera" transform="matrix(2.83509,5.55112e-17,-5.55112e-17,2.83509,-1646.86,-1234.22)">
            <circle cx="902.186" cy="450" r="8.872" style="fill:rgb(235,235,235);"/>
        </g>
        <g transform="matrix(0.0982536,0,0,0.0982536,910.919,41.5738)">
            <g transform="matrix(1,0,0,1,-256,-256)">
                <circle cx="256" cy="256" r="256" style="fill:rgb(238,238,238);"/>
                <path d="M512,256C511.987,149.198 445.14,53.13 345,16L345,496C445.14,458.87 511.987,362.802 512,256Z" style="fill:rgb(216,0,39);fill-rule:nonzero;"/>
                <path d="M0,256C0.013,362.802 66.86,458.87 167,496L167,16C66.86,53.13 0.013,149.198 0,256Z" style="fill:rgb(0,82,180);fill-rule:nonzero;"/>
            </g>
        </g>
    </g>
    <g id="Capa22">
        <g id="ginterior21" serif:id="ginterior" transform="matrix(2.83509,-1.11022e-16,1.11022e-16,2.83509,-1629.5,-1074.71)">
            <circle cx="902.186" cy="450" r="8.872" style="fill:rgb(235,235,235);"/>
        </g>
        <g id="gmedio21" serif:id="gmedio" transform="matrix(2.83509,-1.11022e-16,1.11022e-16,2.83509,-1615.68,-1121.97)">
            <circle cx="902.186" cy="450" r="8.872" style="fill:rgb(235,235,235);"/>
        </g>
        <g id="gexterior21" serif:id="gexterior" transform="matrix(2.83509,-1.11022e-16,1.11022e-16,2.83509,-1600.55,-1169.95)">
            <circle cx="902.186" cy="450" r="8.872" style="fill:rgb(235,235,235);"/>
        </g>
        <g id="gbandera21" serif:id="gbandera" transform="matrix(2.83509,-1.11022e-16,1.11022e-16,2.83509,-1585.36,-1217.83)">
            <circle cx="902.186" cy="450" r="8.872" style="fill:rgb(235,235,235);"/>
        </g>
        <g transform="matrix(0.0982536,0,0,0.0982536,972.414,57.9612)">
            <g transform="matrix(1,0,0,1,-256,-256)">
                <path d="M0,256C0.013,362.802 66.86,458.87 167,496L189.2,256L167,16C66.86,53.13 0.013,149.198 0,256Z" style="fill:rgb(109,165,68);fill-rule:nonzero;"/>
                <path d="M512,256C511.983,115.574 396.426,0.031 256,0.031C225.621,0.031 195.484,5.439 167,16L167,496C195.484,506.561 225.621,511.969 256,511.969C396.426,511.969 511.983,396.426 512,256Z" style="fill:rgb(216,0,39);fill-rule:nonzero;"/>
                <circle cx="167" cy="256" r="89" style="fill:rgb(255,218,68);"/>
                <path d="M116.9,211.5L116.9,267C116.9,294.457 139.493,317.05 166.95,317.05C194.407,317.05 217,294.457 217,267L217,211.4L117,211.4L116.9,211.5Z" style="fill:rgb(216,0,39);fill-rule:nonzero;"/>
                <path d="M167,283.8C157.8,283.8 150.3,276.3 150.3,267.1L150.3,245L183.7,245L183.7,267C183.7,276.2 176.2,283.7 167,283.7L167,283.8Z" style="fill:rgb(238,238,238);fill-rule:nonzero;"/>
            </g>
        </g>
    </g>
    <g id="Capa23">
        <g id="ginterior22" serif:id="ginterior" transform="matrix(2.83509,0,0,2.83509,-1581.98,-1057.41)">
            <circle cx="902.186" cy="450" r="8.872" style="fill:rgb(235,235,235);"/>
        </g>
        <g id="gmedio22" serif:id="gmedio" transform="matrix(2.83509,0,0,2.83509,-1564.08,-1103.29)">
            <circle cx="902.186" cy="450" r="8.872" style="fill:rgb(235,235,235);"/>
        </g>
        <g id="gexterior22" serif:id="gexterior" transform="matrix(2.83509,0,0,2.83509,-1544.84,-1149.77)">
            <circle cx="902.186" cy="450" r="8.872" style="fill:rgb(235,235,235);"/>
        </g>
        <g id="gbandera22" serif:id="gbandera" transform="matrix(2.83509,0,0,2.83509,-1525.53,-1196.14)">
            <circle cx="902.186" cy="450" r="8.872" style="fill:rgb(235,235,235);"/>
        </g>
        <g transform="matrix(0.0982536,0,0,0.0982536,1032.25,79.6459)">
            <g transform="matrix(1,0,0,1,-256,-256)">
                <clipPath id="_clip12">
                    <rect x="0" y="0" width="512" height="512"/>
                </clipPath>
                <g clip-path="url(#_clip12)">
                    <path d="M496,345C517.34,287.601 517.34,224.399 496,167L256,144.7L16,167C-5.331,224.4 -5.331,287.6 16,345L256,367.3L496,345Z" style="fill:rgb(238,238,238);fill-rule:nonzero;"/>
                    <path d="M256,512C362.802,511.987 458.87,445.14 496,345L16,345C53.13,445.14 149.198,511.987 256,512ZM256,0C149.198,0.013 53.13,66.86 16,167L496,167C458.87,66.86 362.802,0.013 256,0Z" style="fill:rgb(216,0,39);fill-rule:nonzero;"/>
                </g>
            </g>
        </g>
    </g>
    <g id="Capa24">
        <g id="ginterior23" serif:id="ginterior" transform="matrix(2.83509,4.44089e-16,-4.44089e-16,2.83509,-1536.14,-1036.04)">
            <circle cx="902.186" cy="450" r="8.872" style="fill:rgb(235,235,235);"/>
        </g>
        <g id="gmedio23" serif:id="gmedio" transform="matrix(2.83509,4.44089e-16,-4.44089e-16,2.83509,-1514.32,-1080.19)">
            <circle cx="902.186" cy="450" r="8.872" style="fill:rgb(235,235,235);"/>
        </g>
        <g id="gexterior23" serif:id="gexterior" transform="matrix(2.83509,4.44089e-16,-4.44089e-16,2.83509,-1491.09,-1124.81)">
            <circle cx="902.186" cy="450" r="8.872" style="fill:rgb(235,235,235);"/>
        </g>
        <g id="gbandera23" serif:id="gbandera" transform="matrix(2.83509,4.44089e-16,-4.44089e-16,2.83509,-1467.82,-1169.33)">
            <circle cx="902.186" cy="450" r="8.872" style="fill:rgb(235,235,235);"/>
        </g>
        <g transform="matrix(0.0982536,0,0,0.0982536,1089.96,106.463)">
            <g transform="matrix(1,0,0,1,-256,-256)">
                <clipPath id="_clip13">
                    <rect x="0" y="0" width="512" height="512"/>
                </clipPath>
                <g clip-path="url(#_clip13)">
                    <circle cx="256" cy="256" r="256" style="fill:rgb(238,238,238);"/>
                    <path d="M256,0C140.675,-0.031 38.893,77.87 8.8,189.2L503.2,189.2C473.077,77.89 371.314,0.003 256,0ZM256,512C371.325,512.031 473.107,434.13 503.2,322.8L8.8,322.8C38.893,434.13 140.675,512.031 256,512Z" style="fill:rgb(162,0,29);fill-rule:nonzero;"/>
                </g>
            </g>
        </g>
    </g>
    <g id="Capa25">
        <g id="ginterior24" serif:id="ginterior" transform="matrix(2.83509,-2.22045e-16,2.22045e-16,2.83509,-1492.33,-1010.76)">
            <circle cx="902.186" cy="450" r="8.872" style="fill:rgb(235,235,235);"/>
        </g>
        <g id="gmedio24" serif:id="gmedio" transform="matrix(2.83509,-2.22045e-16,2.22045e-16,2.83509,-1466.75,-1052.83)">
            <circle cx="902.186" cy="450" r="8.872" style="fill:rgb(235,235,235);"/>
        </g>
        <g id="gexterior24" serif:id="gexterior" transform="matrix(2.83509,-2.22045e-16,2.22045e-16,2.83509,-1439.72,-1095.27)">
            <circle cx="902.186" cy="450" r="8.872" style="fill:rgb(235,235,235);"/>
        </g>
        <g id="gbandera24" serif:id="gbandera" transform="matrix(2.83509,-2.22045e-16,2.22045e-16,2.83509,-1412.66,-1137.58)">
            <circle cx="902.186" cy="450" r="8.872" style="fill:rgb(235,235,235);"/>
        </g>
        <g transform="matrix(0.0982536,0,0,0.0982536,1145.12,138.208)">
            <g transform="matrix(1,0,0,1,-256,-256)">
                <clipPath id="_clip14">
                    <rect x="0" y="0" width="512" height="512"/>
                </clipPath>
                <g clip-path="url(#_clip14)">
                    <path d="M0,256C0,287.3 5.6,317.3 16,345L256,367.3L496,345C517.331,287.6 517.331,224.4 496,167L256,144.7L16,167C5.418,195.479 -0.001,225.618 0,256Z" style="fill:rgb(255,218,68);fill-rule:nonzero;"/>
                    <path d="M496,167C458.842,66.893 362.781,0.084 256,0.084C149.219,0.084 53.158,66.893 16,167L496,167ZM16,345C53.158,445.107 149.219,511.916 256,511.916C362.781,511.916 458.842,445.107 496,345L16,345Z" style="fill:rgb(216,0,39);fill-rule:nonzero;"/>
                </g>
            </g>
        </g>
    </g>
    <g id="Capa26">
        <g id="ginterior25" serif:id="ginterior" transform="matrix(2.83509,-4.44089e-16,4.44089e-16,2.83509,-1450.9,-981.755)">
            <circle cx="902.186" cy="450" r="8.872" style="fill:rgb(235,235,235);"/>
        </g>
        <g id="gmedio25" serif:id="gmedio" transform="matrix(2.83509,-4.44089e-16,4.44089e-16,2.83509,-1421.75,-1021.44)">
            <circle cx="902.186" cy="450" r="8.872" style="fill:rgb(235,235,235);"/>
        </g>
        <g id="gexterior25" serif:id="gexterior" transform="matrix(2.83509,-4.44089e-16,4.44089e-16,2.83509,-1391.13,-1061.35)">
            <circle cx="902.186" cy="450" r="8.872" style="fill:rgb(235,235,235);"/>
        </g>
        <g id="gbandera25" serif:id="gbandera" transform="matrix(2.83509,-4.44089e-16,4.44089e-16,2.83509,-1360.48,-1101.15)">
            <circle cx="902.186" cy="450" r="8.872" style="fill:rgb(235,235,235);"/>
        </g>
        <g transform="matrix(0.0982536,0,0,0.0982536,1197.3,174.639)">
            <g transform="matrix(1,0,0,1,-256,-256)">
                <clipPath id="_clip15">
                    <rect x="0" y="0" width="512" height="512"/>
                </clipPath>
                <g clip-path="url(#_clip15)">
                    <circle cx="256" cy="256" r="256" style="fill:rgb(238,238,238);"/>
                    <path d="M8.8,322.8C23.515,376.98 55.639,424.849 100.2,459L100.2,322.8L8.8,322.8ZM233.8,511C241.182,511.65 248.589,511.984 256,512C371.325,512.031 473.107,434.13 503.2,322.8L233.7,322.8L233.7,511L233.8,511ZM503.2,189.2C470.955,69.947 356.762,-9.797 233.7,1L233.7,189.2L503.2,189.2ZM100.2,53C55.639,87.151 23.515,135.02 8.8,189.2L100.2,189.2L100.2,53Z" style="fill:rgb(0,82,180);fill-rule:nonzero;"/>
                    <path d="M509.8,222.6L200.3,222.6L200.3,6.1C177.004,11.263 154.55,19.679 133.6,31.1L133.6,222.6L2.2,222.6C-0.692,244.773 -0.692,267.227 2.2,289.4L133.6,289.4L133.6,480.9C154.55,492.321 177.004,500.737 200.3,505.9L200.3,289.4L509.8,289.4C512.688,267.227 512.688,244.773 509.8,222.6Z" style="fill:rgb(216,0,39);fill-rule:nonzero;"/>
                </g>
            </g>
        </g>
    </g>
    <g id="Capa27">
        <g id="ginterior26" serif:id="ginterior" transform="matrix(2.83509,0,0,2.83509,-1412.16,-949.249)">
            <circle cx="902.186" cy="450" r="8.872" style="fill:rgb(235,235,235);"/>
        </g>
        <g id="gmedio26" serif:id="gmedio" transform="matrix(2.83509,0,0,2.83509,-1379.66,-986.242)">
            <circle cx="902.186" cy="450" r="8.872" style="fill:rgb(235,235,235);"/>
        </g>
        <g id="gexterior26" serif:id="gexterior" transform="matrix(2.83509,0,0,2.83509,-1345.67,-1023.34)">
            <circle cx="902.186" cy="450" r="8.872" style="fill:rgb(235,235,235);"/>
        </g>
        <g id="gbandera26" serif:id="gbandera" transform="matrix(2.83509,0,0,2.83509,-1311.67,-1060.31)">
            <circle cx="902.186" cy="450" r="8.872" style="fill:rgb(235,235,235);"/>
        </g>
        <g transform="matrix(0.0982536,0,0,0.0982536,1246.11,215.48)">
            <g transform="matrix(1,0,0,1,-256,-256)">
                <clipPath id="_clip16">
                    <rect x="0" y="0" width="512" height="512"/>
                </clipPath>
                <g clip-path="url(#_clip16)">
                    <path d="M496,345C517.34,287.601 517.34,224.399 496,167L256,144.7L16,167C-5.34,224.399 -5.34,287.601 16,345L256,367.3L496,345Z" style="fill:rgb(109,165,68);fill-rule:nonzero;"/>
                    <path d="M496,167C458.842,66.893 362.781,0.084 256,0.084C149.219,0.084 53.158,66.893 16,167L496,167Z" style="fill:rgb(255,218,68);fill-rule:nonzero;"/>
                    <path d="M256,512C362.802,511.987 458.87,445.14 496,345L16,345C53.13,445.14 149.198,511.987 256,512Z" style="fill:rgb(216,0,39);fill-rule:nonzero;"/>
                </g>
            </g>
        </g>
    </g>
    <g id="Capa28">
        <g id="ginterior27" serif:id="ginterior" transform="matrix(2.83509,-2.22045e-16,2.22045e-16,2.83509,-1376.39,-913.491)">
            <circle cx="902.186" cy="450" r="8.872" style="fill:rgb(235,235,235);"/>
        </g>
        <g id="gmedio27" serif:id="gmedio" transform="matrix(2.83509,-2.22045e-16,2.22045e-16,2.83509,-1340.79,-947.51)">
            <circle cx="902.186" cy="450" r="8.872" style="fill:rgb(235,235,235);"/>
        </g>
        <g id="gexterior27" serif:id="gexterior" transform="matrix(2.83509,-2.22045e-16,2.22045e-16,2.83509,-1303.7,-981.5)">
            <circle cx="902.186" cy="450" r="8.872" style="fill:rgb(235,235,235);"/>
        </g>
        <g id="gbandera27" serif:id="gbandera" transform="matrix(2.83509,-2.22045e-16,2.22045e-16,2.83509,-1266.61,-1015.37)">
            <circle cx="902.186" cy="450" r="8.872" style="fill:rgb(235,235,235);"/>
        </g>
        <g transform="matrix(0.0982536,0,0,0.0982536,1291.17,260.42)">
            <g transform="matrix(1,0,0,1,-256,-256)">
                <clipPath id="_clip17">
                    <rect x="0" y="0" width="512" height="512"/>
                </clipPath>
                <g clip-path="url(#_clip17)">
                    <path d="M16,167C-5.331,224.4 -5.331,287.6 16,345L256,367.3L496,345C517.34,287.601 517.34,224.399 496,167L256,144.7L16,167Z" style="fill:rgb(238,238,238);fill-rule:nonzero;"/>
                    <path d="M256,0C149.198,0.013 53.13,66.86 16,167L496,167C458.87,66.86 362.802,0.013 256,0Z" style="fill:rgb(216,0,39);fill-rule:nonzero;"/>
                    <path d="M256,512C362.802,511.987 458.87,445.14 496,345L16,345C53.13,445.14 149.198,511.987 256,512Z" style="fill:rgb(109,165,68);fill-rule:nonzero;"/>
                </g>
            </g>
        </g>
    </g>
    <g id="Capa29">
        <g id="ginterior28" serif:id="ginterior" transform="matrix(2.83509,0,0,2.83509,-1343.88,-874.751)">
            <circle cx="902.186" cy="450" r="8.872" style="fill:rgb(235,235,235);"/>
        </g>
        <g id="gmedio28" serif:id="gmedio" transform="matrix(2.83509,0,0,2.83509,-1305.45,-905.538)">
            <circle cx="902.186" cy="450" r="8.872" style="fill:rgb(235,235,235);"/>
        </g>
        <g id="gexterior28" serif:id="gexterior" transform="matrix(2.83509,0,0,2.83509,-1265.54,-936.167)">
            <circle cx="902.186" cy="450" r="8.872" style="fill:rgb(235,235,235);"/>
        </g>
        <g id="gbandera28" serif:id="gbandera" transform="matrix(2.83509,0,0,2.83509,-1225.63,-966.675)">
            <circle cx="902.186" cy="450" r="8.872" style="fill:rgb(235,235,235);"/>
        </g>
        <g transform="matrix(0.0982536,0,0,0.0982536,1332.15,309.115)">
            <g transform="matrix(1,0,0,1,-256,-256)">
                <circle cx="256" cy="256" r="256" style="fill:rgb(238,238,238);"/>
                <path d="M512,256C511.987,149.198 445.14,53.13 345,16L345,496C445.14,458.87 511.987,362.802 512,256Z" style="fill:rgb(216,0,39);fill-rule:nonzero;"/>
                <path d="M0,256C0.013,362.802 66.86,458.87 167,496L167,16C66.86,53.13 0.013,149.198 0,256Z" style="fill:rgb(109,165,68);fill-rule:nonzero;"/>
            </g>
        </g>
    </g>
    <g id="Capa30">
        <g id="ginterior29" serif:id="ginterior" transform="matrix(2.83509,-8.88178e-16,8.88178e-16,2.83509,-1314.87,-833.325)">
            <circle cx="902.186" cy="450" r="8.872" style="fill:rgb(235,235,235);"/>
        </g>
        <g id="gmedio29" serif:id="gmedio" transform="matrix(2.83509,-8.88178e-16,8.88178e-16,2.83509,-1273.9,-860.645)">
            <circle cx="902.186" cy="450" r="8.872" style="fill:rgb(235,235,235);"/>
        </g>
        <g id="gexterior29" serif:id="gexterior" transform="matrix(2.83509,-8.88178e-16,8.88178e-16,2.83509,-1231.47,-887.679)">
            <circle cx="902.186" cy="450" r="8.872" style="fill:rgb(235,235,235);"/>
        </g>
        <g id="gbandera29" serif:id="gbandera" transform="matrix(2.83509,-8.88178e-16,8.88178e-16,2.83509,-1189.06,-914.593)">
            <circle cx="902.186" cy="450" r="8.872" style="fill:rgb(235,235,235);"/>
        </g>
        <g transform="matrix(0.0982536,0,0,0.0982536,1368.72,361.197)">
            <g transform="matrix(1,0,0,1,-256,-256)">
                <circle cx="256" cy="256" r="256" style="fill:rgb(238,238,238);"/>
                <path d="M256,0C149.198,0.013 53.13,66.86 16,167L496,167C458.87,66.86 362.802,0.013 256,0Z" style="fill:rgb(216,0,39);fill-rule:nonzero;"/>
                <path d="M256,512C362.802,511.987 458.87,445.14 496,345L16,345C53.13,445.14 149.198,511.987 256,512Z" style="fill:rgb(51,138,243);fill-rule:nonzero;"/>
            </g>
        </g>
    </g>
    <g id="Capa31">
        <g id="ginterior30" serif:id="ginterior" transform="matrix(2.83509,-4.44089e-16,4.44089e-16,2.83509,-1289.58,-789.528)">
            <circle cx="902.186" cy="450" r="8.872" style="fill:rgb(235,235,235);"/>
        </g>
        <g id="gmedio30" serif:id="gmedio" transform="matrix(2.83509,-4.44089e-16,4.44089e-16,2.83509,-1246.38,-813.173)">
            <circle cx="902.186" cy="450" r="8.872" style="fill:rgb(235,235,235);"/>
        </g>
        <g id="gexterior30" serif:id="gexterior" transform="matrix(2.83509,-4.44089e-16,4.44089e-16,2.83509,-1201.76,-836.407)">
            <circle cx="902.186" cy="450" r="8.872" style="fill:rgb(235,235,235);"/>
        </g>
        <g id="gbandera30" serif:id="gbandera" transform="matrix(2.83509,-4.44089e-16,4.44089e-16,2.83509,-1157.16,-859.522)">
            <circle cx="902.186" cy="450" r="8.872" style="fill:rgb(235,235,235);"/>
        </g>
        <g transform="matrix(0.0982536,0,0,0.0982536,1400.62,416.268)">
            <g transform="matrix(1,0,0,1,-256,-256)">
                <circle cx="256" cy="256" r="256" style="fill:rgb(238,238,238);"/>
                <path d="M256,512C396.426,511.983 511.969,396.426 511.969,256C511.969,225.621 506.561,195.484 496,167L16,167C5.439,195.484 0.031,225.621 0.031,256C0.031,396.426 115.574,511.983 256,512Z" style="fill:rgb(0,82,180);fill-rule:nonzero;"/>
                <path d="M256,512C362.802,511.987 458.87,445.14 496,345L16,345C53.13,445.14 149.198,511.987 256,512Z" style="fill:rgb(216,0,39);fill-rule:nonzero;"/>
                <path d="M66.2,144.7L66.2,272.4C66.2,345 161.1,367.4 161.1,367.4C161.1,367.4 256,345 256,272.4L256,144.7L66.2,144.7Z" style="fill:rgb(238,238,238);fill-rule:nonzero;"/>
                <path d="M88.5,144.7L88.5,272.4C88.476,280.758 90.393,289.009 94.1,296.5L228.1,296.5C231.82,289.014 233.738,280.76 233.7,272.4L233.7,144.7L88.5,144.7Z" style="fill:rgb(216,0,39);fill-rule:nonzero;"/>
                <path d="M205.6,233.7L172.2,233.7L172.2,211.5L194.5,211.5L194.5,189.2L172.2,189.2L172.2,167L150,167L150,189.2L127.7,189.2L127.7,211.5L150,211.5L150,233.7L116.6,233.7L116.6,256L150,256L150,278.3L172.2,278.3L172.2,256L205.6,256L205.6,233.7Z" style="fill:rgb(238,238,238);fill-rule:nonzero;"/>
                <path d="M124.5,327.6C135.954,334.65 148.251,340.227 161.1,344.2C168.6,341.9 183.4,336.6 197.7,327.6C210.496,320.267 221.019,309.537 228.1,296.6C221.532,291.92 213.665,289.403 205.6,289.4C202.6,289.4 199.6,289.8 196.8,290.4C190.585,276.268 176.538,267.101 161.1,267.101C145.662,267.101 131.615,276.268 125.4,290.4C122.514,289.734 119.562,289.398 116.6,289.4C108.2,289.4 100.5,292 94.1,296.5C101.166,309.474 111.69,320.24 124.5,327.6Z" style="fill:rgb(0,82,180);fill-rule:nonzero;"/>
            </g>
        </g>
    </g>
    <g id="Capa32">
        <g id="ginterior31" serif:id="ginterior" transform="matrix(2.83509,-2.22045e-16,2.22045e-16,2.83509,-1268.2,-743.694)">
            <circle cx="902.186" cy="450" r="8.872" style="fill:rgb(235,235,235);"/>
        </g>
        <g id="gmedio31" serif:id="gmedio" transform="matrix(2.83509,-2.22045e-16,2.22045e-16,2.83509,-1223.11,-763.484)">
            <circle cx="902.186" cy="450" r="8.872" style="fill:rgb(235,235,235);"/>
        </g>
        <g id="gexterior31" serif:id="gexterior" transform="matrix(2.83509,-2.22045e-16,2.22045e-16,2.83509,-1176.63,-782.74)">
            <circle cx="902.186" cy="450" r="8.872" style="fill:rgb(235,235,235);"/>
        </g>
        <g id="gbandera31" serif:id="gbandera" transform="matrix(2.83509,-2.22045e-16,2.22045e-16,2.83509,-1130.19,-801.881)">
            <circle cx="902.186" cy="450" r="8.872" style="fill:rgb(235,235,235);"/>
        </g>
        <g transform="matrix(0.0982536,0,0,0.0982536,1427.59,473.91)">
            <g transform="matrix(1,0,0,1,-256,-256)">
                <circle cx="256" cy="256" r="256" style="fill:rgb(238,238,238);"/>
                <path d="M352.4,200.3L288,200.3L256,144.7L223.9,200.3L159.6,200.3L191.7,256L159.7,311.7L223.9,311.7L256,367.3L288.1,311.7L352.4,311.7L320.3,256L352.3,200.3L352.4,200.3ZM295.4,256L275.7,290.2L236.3,290.2L216.5,256L236.3,221.8L275.7,221.8L295.5,256L295.4,256ZM256,187.6L263.3,200.3L248.7,200.3L256,187.6ZM196.8,221.8L211.5,221.8L204.1,234.5L196.8,221.8ZM196.8,290.2L204.1,277.5L211.5,290.2L196.8,290.2ZM256,324.4L248.7,311.7L263.3,311.7L256,324.4ZM315.2,290.2L300.5,290.2L307.9,277.5L315.2,290.2ZM300.5,221.8L315.2,221.8L307.9,234.5L300.5,221.8ZM415.4,55.7L96.6,55.7C73.206,74.335 53.24,96.907 37.6,122.4L474.4,122.4C458.76,96.907 438.794,74.335 415.4,55.7ZM96.6,456.3L415.4,456.3C438.794,437.665 458.76,415.093 474.4,389.6L37.6,389.6C53.24,415.093 73.206,437.665 96.6,456.3Z" style="fill:rgb(0,82,180);fill-rule:nonzero;"/>
            </g>
        </g>
    </g>
    <g id="Capa33">
        <g id="ginterior32" serif:id="ginterior" transform="matrix(2.83509,-3.33067e-16,3.33067e-16,2.83509,-1250.9,-696.171)">
            <circle cx="902.186" cy="450" r="8.872" style="fill:rgb(235,235,235);"/>
        </g>
        <g id="gmedio32" serif:id="gmedio" transform="matrix(2.83509,-3.33067e-16,3.33067e-16,2.83509,-1204.25,-711.956)">
            <circle cx="902.186" cy="450" r="8.872" style="fill:rgb(235,235,235);"/>
        </g>
        <g id="gexterior32" serif:id="gexterior" transform="matrix(2.83509,-3.33067e-16,3.33067e-16,2.83509,-1156.27,-727.088)">
            <circle cx="902.186" cy="450" r="8.872" style="fill:rgb(235,235,235);"/>
        </g>
        <g id="gbandera32" serif:id="gbandera" transform="matrix(2.83509,-3.33067e-16,3.33067e-16,2.83509,-1108.34,-742.108)">
            <circle cx="902.186" cy="450" r="8.872" style="fill:rgb(235,235,235);"/>
        </g>
        <g transform="matrix(0.0982536,0,0,0.0982536,1449.44,533.683)">
            <g transform="matrix(1,0,0,1,-256,-256)">
                <circle cx="256" cy="256" r="256" style="fill:rgb(216,0,39);"/>
                <g>
                    <path d="M245.5,209.2L266.5,238.2L300.5,227.1L279.5,256.1L300.5,285L266.5,273.9L245.5,302.9L245.5,267L211.5,255.9L245.5,244.9L245.5,209.2Z" style="fill:rgb(238,238,238);fill-rule:nonzero;"/>
                    <path d="M188.2,328.3C148.614,328.19 116.101,295.587 116.101,256C116.101,216.338 148.738,183.7 188.401,183.7C200.335,183.7 212.085,186.655 222.6,192.3C205.978,176.055 183.636,166.95 160.393,166.95C111.569,166.95 71.393,207.126 71.393,255.95C71.393,304.774 111.569,344.95 160.393,344.95C183.636,344.95 205.978,335.845 222.6,319.6C212.039,325.324 200.212,328.315 188.2,328.3Z" style="fill:rgb(238,238,238);fill-rule:nonzero;"/>
                </g>
            </g>
        </g>
    </g>
    <g id="Capa34">
        <g id="ginterior33" serif:id="ginterior" transform="matrix(2.83509,4.44089e-16,-4.44089e-16,2.83509,-1237.8,-647.32)">
            <circle cx="902.186" cy="450" r="8.872" style="fill:rgb(235,235,235);"/>
        </g>
        <g id="gmedio33" serif:id="gmedio" transform="matrix(2.83509,4.44089e-16,-4.44089e-16,2.83509,-1189.96,-658.98)">
            <circle cx="902.186" cy="450" r="8.872" style="fill:rgb(235,235,235);"/>
        </g>
        <g id="gexterior33" serif:id="gexterior" transform="matrix(2.83509,4.44089e-16,-4.44089e-16,2.83509,-1140.84,-669.873)">
            <circle cx="902.186" cy="450" r="8.872" style="fill:rgb(235,235,235);"/>
        </g>
        <g id="gbandera33" serif:id="gbandera" transform="matrix(2.83509,4.44089e-16,-4.44089e-16,2.83509,-1091.78,-680.658)">
            <circle cx="902.186" cy="450" r="8.872" style="fill:rgb(235,235,235);"/>
        </g>
        <g transform="matrix(0.0982536,0,0,0.0982536,1465.99,595.133)">
            <g transform="matrix(1,0,0,1,-256,-256)">
                <clipPath id="_clip18">
                    <rect x="0" y="0" width="512" height="512"/>
                </clipPath>
                <g clip-path="url(#_clip18)">
                    <circle cx="256" cy="256" r="256" style="fill:rgb(238,238,238);"/>
                    <path d="M256,189.2L503.2,189.2C496.847,165.67 487.148,143.173 474.4,122.4L256,122.4L256,189.2ZM96.6,456.3L415.4,456.3C438.794,437.665 458.76,415.093 474.4,389.6L37.6,389.6C53.24,415.093 73.206,437.665 96.6,456.3ZM89,62C68.84,79.386 51.5,99.796 37.6,122.5L89,122.5L89,62ZM256,256L256,189.2L155.8,189.2L155.8,256L89,256L89,189.2L8.8,189.2C-3.01,232.947 -3.01,279.053 8.8,322.8L503.2,322.8C508.9,301.5 512,279.1 512,256L256,256ZM256,0C220.5,0 186.6,7.3 155.8,20.3L155.8,122.4L256,122.4L256,55.7L415.4,55.7C370.143,19.578 313.905,-0.074 256,-0Z" style="fill:rgb(51,138,243);fill-rule:nonzero;"/>
                </g>
            </g>
        </g>
    </g>
    <g id="Capa35">
        <g id="ginterior34" serif:id="ginterior" transform="matrix(2.83509,-7.21645e-16,7.21645e-16,2.83509,-1229.01,-597.514)">
            <circle cx="902.186" cy="450" r="8.872" style="fill:rgb(235,235,235);"/>
        </g>
        <g id="gmedio34" serif:id="gmedio" transform="matrix(2.83509,-7.21645e-16,7.21645e-16,2.83509,-1180.34,-604.96)">
            <circle cx="902.186" cy="450" r="8.872" style="fill:rgb(235,235,235);"/>
        </g>
        <g id="gexterior34" serif:id="gexterior" transform="matrix(2.83509,-7.21645e-16,7.21645e-16,2.83509,-1130.46,-611.531)">
            <circle cx="902.186" cy="450" r="8.872" style="fill:rgb(235,235,235);"/>
        </g>
        <g id="gbandera34" serif:id="gbandera" transform="matrix(2.83509,-7.21645e-16,7.21645e-16,2.83509,-1080.65,-617.999)">
            <circle cx="902.186" cy="450" r="8.872" style="fill:rgb(235,235,235);"/>
        </g>
        <g id="CL" transform="matrix(0.0982422,0,0,0.0982422,1477.13,657.794)">
            <g transform="matrix(1,0,0,1,-256,-256)">
                <circle cx="256" cy="256" r="256" style="fill:rgb(238,238,238);"/>
                <path d="M512,256C512,396.437 396.437,512 256,512C115.563,512 0,396.437 0,256C0,114.6 256,256 256,256L512,256Z" style="fill:rgb(216,0,39);fill-rule:nonzero;"/>
                <path d="M0,256C-0,115.563 115.563,0 256,0L256,256L0,256Z" style="fill:rgb(0,82,180);fill-rule:nonzero;"/>
                <path d="M152.4,89L169,140L222.6,140L179.2,171.6L195.8,222.6L152.4,191.1L109,222.6L125.6,171.6L82.2,140L135.8,140L152.4,89Z" style="fill:rgb(238,238,238);fill-rule:nonzero;"/>
            </g>
        </g>
    </g>
    <g id="Capa36">
        <g id="ginterior35" serif:id="ginterior" transform="matrix(2.83509,-3.05311e-16,3.05311e-16,2.83509,-1224.6,-547.132)">
            <circle cx="902.186" cy="450" r="8.872" style="fill:rgb(235,235,235);"/>
        </g>
        <g id="gmedio35" serif:id="gmedio" transform="matrix(2.83509,-3.05311e-16,3.05311e-16,2.83509,-1175.46,-550.307)">
            <circle cx="902.186" cy="450" r="8.872" style="fill:rgb(235,235,235);"/>
        </g>
        <g id="gexterior35" serif:id="gexterior" transform="matrix(2.83509,-3.05311e-16,3.05311e-16,2.83509,-1125.2,-552.506)">
            <circle cx="902.186" cy="450" r="8.872" style="fill:rgb(235,235,235);"/>
        </g>
        <g id="gbandera35" serif:id="gbandera" transform="matrix(2.83509,-3.05311e-16,3.05311e-16,2.83509,-1075.01,-554.608)">
            <circle cx="902.186" cy="450" r="8.872" style="fill:rgb(235,235,235);"/>
        </g>
        <g transform="matrix(0.0982536,0,0,0.0982536,1482.88,721.183)">
            <g transform="matrix(1,0,0,1,-256,-256)">
                <clipPath id="_clip19">
                    <rect x="0" y="0" width="512" height="512"/>
                </clipPath>
                <g clip-path="url(#_clip19)">
                    <circle cx="256" cy="256" r="256" style="fill:rgb(238,238,238);"/>
                    <path d="M512,256C512.023,157.894 455.649,68.053 367.3,25.4L367.3,486.6C455.649,443.947 512.023,354.106 512,256Z" style="fill:rgb(216,0,39);fill-rule:nonzero;"/>
                    <path d="M0,256C-0.023,354.106 56.351,443.947 144.7,486.6L144.7,25.4C56.351,68.053 -0.023,157.894 -0,256ZM189.2,256C189.2,292.645 219.355,322.8 256,322.8C292.645,322.8 322.8,292.645 322.8,256L322.8,233.7L189.2,233.7L189.2,256Z" style="fill:rgb(109,165,68);fill-rule:nonzero;"/>
                    <path d="M345,211.5L278.3,211.5C278.3,199.267 268.233,189.2 256,189.2C243.767,189.2 233.7,199.267 233.7,211.5L167,211.5C167.429,223.813 177.679,233.707 190,233.7L189.2,233.7C189.2,246 199.2,256 211.5,256C211.5,268.3 221.5,278.3 233.7,278.3L278.3,278.3C290.6,278.3 300.5,268.3 300.5,256C312.8,256 322.8,246 322.8,233.7L322,233.7C334.321,233.707 344.571,223.813 345,211.5Z" style="fill:rgb(255,152,17);fill-rule:nonzero;"/>
                </g>
            </g>
        </g>
    </g>
    <g id="OCDE_graf_Texto">
        <g id="info_ocde11" transform="matrix(1,0,0,1,-43.8646,1.44486)">
            <text x="748.69px" y="430.671px" style="font-size:50px;">Pas</text>
        </g>
        <g id="info_ocde14" transform="matrix(0.761239,0,0,0.761239,146.642,147.717)">
            <text x="682.679px" y="430.671px" style="font-size:34.155px;">Pr<tspan x="716.494px " y="430.671px ">o</tspan>medio Pisa</text>
        </g>
        <g id="info_ocde12" transform="matrix(0.761239,0,0,0.761239,146.642,187.772)">
            <text x="628.026px" y="430.671px" style="font-size:34.155px;">Poblacin Inmigrante</text>
        </g>
        <g id="info_ocde13" transform="matrix(0.761239,0,0,0.761239,146.642,227.827)">
            <text x="577.934px" y="430.671px" style="font-size:34.155px;">Ener<tspan x="650.367px " y="430.671px ">g</tspan>a R<tspan x="729.787px " y="430.671px ">e</tspan>no<tspan x="789.364px 807.8px " y="430.671px 430.671px ">va</tspan>ble Primaria</text>
        </g>
    </g>
</svg>
 