<?xml version="1.0" encoding="UTF-8" standalone="no"?>
<!DOCTYPE svg PUBLIC "-//W3C//DTD SVG 1.1//EN" "http://www.w3.org/Graphics/SVG/1.1/DTD/svg11.dtd">
<svg width="100%" height="100%" viewBox="0 0 225 127" version="1.1" xmlns="http://www.w3.org/2000/svg" xmlns:xlink="http://www.w3.org/1999/xlink" xml:space="preserve" xmlns:serif="http://www.serif.com/" style="fill-rule:evenodd;clip-rule:evenodd;stroke-linejoin:round;stroke-miterlimit:2;">
    <g id="libro-barra2-1" transform="matrix(3.56165,0,0,0.508107,-1103.04,-43.3514)">
        <rect x="309.7" y="209.86" width="63.03" height="124.58" style="fill:rgb(210,78,75);"/>
    </g>
    <g id="libro-barra1-1" transform="matrix(3.56165,0,0,0.508107,-1103.04,-106.631)">
        <rect x="309.7" y="209.86" width="63.03" height="124.58" style="fill:rgb(75,210,200);"/>
    </g>
    <path id="libro-fondo-1" d="M0,125.58C0,126.132 0.448,126.58 1,126.58L0,126.58L0,125.58ZM224.49,126.58L223.49,126.58C224.042,126.58 224.49,126.132 224.49,125.58L224.49,126.58ZM224.49,12.03C224.49,11.478 224.042,11.03 223.49,11.03L217.34,11.03L217.34,1.62C217.34,0.732 216.608,0 215.72,0L224.49,0L224.49,12.03ZM133.974,0.001C124.011,0.101 115.562,6.545 112.485,15.491C109.383,6.474 100.826,0 90.76,0L134.21,0L133.974,0.001ZM9.25,0C8.362,0 7.63,0.732 7.63,1.62L7.63,11.03L1,11.03C0.448,11.03 -0,11.478 0,12.03L0,0L9.25,0Z" style="fill:rgb(0,13,20);"/>
    <g id="libro-svg-1" transform="matrix(1,0,0,1,-1.97915,-0.668132)">
        <path d="M9.609,11.698L9.609,2.288C9.609,1.4 10.341,0.668 11.229,0.668L92.739,0.668C102.804,0.668 111.36,7.141 114.464,16.158C117.568,7.141 126.125,0.668 136.189,0.668L217.699,0.668C218.588,0.668 219.319,1.4 219.319,2.288L219.319,11.698L225.469,11.698C226.021,11.698 226.469,12.146 226.469,12.698L226.469,126.248C226.469,126.8 226.021,127.248 225.469,127.248L2.979,127.248C2.427,127.248 1.979,126.8 1.979,126.248L1.979,12.698C1.979,12.146 2.427,11.698 2.979,11.698L9.609,11.698ZM219.319,13.698L219.319,103.418C219.319,103.743 219.222,104.046 219.054,104.301C218.939,104.725 218.55,105.038 218.089,105.038C218.089,105.038 136.659,105.038 136.659,105.038C125.116,105.038 115.709,113.493 115.709,123.998C115.709,124.549 115.263,124.997 114.712,124.998C114.626,124.998 114.543,124.988 114.464,124.968C114.385,124.988 114.302,124.998 114.217,124.998C113.665,124.997 113.219,124.549 113.219,123.998C113.219,113.493 103.812,105.038 92.269,105.038L10.839,105.038C10.378,105.038 9.989,104.725 9.874,104.301C9.707,104.046 9.609,103.743 9.609,103.418L9.609,13.698L3.979,13.698L3.979,125.248L224.469,125.248L224.469,13.698L219.319,13.698ZM89.709,118.098L18.709,118.098L18.709,116.098L89.709,116.098L89.709,118.098ZM206.819,118.098L135.819,118.098L135.819,116.098L206.819,116.098L206.819,118.098ZM74.649,2.668L11.609,2.668L11.609,103.038L92.269,103.038C101.651,103.038 109.698,108.173 113.261,115.515L113.464,73.818L113.219,23.638C113.219,22.521 113.299,21.423 113.453,20.349C111.874,10.326 103.199,2.668 92.739,2.668L90.709,2.668L90.709,60.048C90.709,60.524 90.373,60.935 89.906,61.029C89.439,61.122 88.971,60.874 88.787,60.435L83.42,47.625L76.531,60.519C76.315,60.924 75.851,61.13 75.406,61.018C74.961,60.907 74.649,60.507 74.649,60.048L74.649,2.668ZM115.464,73.818L115.668,115.515C119.23,108.173 127.277,103.038 136.659,103.038L217.319,103.038L217.319,2.668L136.189,2.668C125.729,2.668 117.052,10.327 115.475,20.347C115.629,21.42 115.709,22.52 115.709,23.638L115.464,73.818ZM70.799,83.398L22.309,83.398C21.757,83.398 21.309,82.95 21.309,82.398C21.309,81.846 21.757,81.398 22.309,81.398L70.799,81.398L70.799,83.398ZM186.519,83.398L138.029,83.398C137.477,83.398 137.029,82.95 137.029,82.398C137.029,81.846 137.477,81.398 138.029,81.398L186.519,81.398L186.519,83.398ZM72.069,66.528L23.579,66.528L23.579,64.528L72.069,64.528L72.069,66.528ZM199.959,66.528L143.959,66.528L143.959,64.528L199.959,64.528L199.959,66.528ZM88.709,55.074L88.709,2.738L76.649,2.738L76.649,56.054L82.647,44.827C82.829,44.486 83.191,44.281 83.576,44.299C83.962,44.317 84.302,44.556 84.451,44.912L88.709,55.074ZM58.149,45.028L32.849,45.028L32.849,43.028L58.149,43.028L58.149,45.028ZM184.199,45.028L135.789,45.028L135.789,43.028L184.199,43.028L184.199,45.028ZM21.679,26.898L21.679,24.898L63.419,24.898C63.971,24.898 64.419,25.346 64.419,25.898C64.419,26.433 63.999,26.87 63.471,26.897L63.419,26.898L21.679,26.898ZM137.089,26.898L137.089,24.898L204.899,24.898C205.451,24.898 205.899,25.346 205.899,25.898C205.899,26.433 205.479,26.87 204.951,26.897L204.899,26.898L137.089,26.898Z" style="fill:rgb(223,223,223);"/>
    </g>
</svg>
