<?xml version="1.0" encoding="UTF-8" standalone="no"?>
<!DOCTYPE svg PUBLIC "-//W3C//DTD SVG 1.1//EN" "http://www.w3.org/Graphics/SVG/1.1/DTD/svg11.dtd">
<svg width="100%" height="100%" viewBox="0 0 104 608" version="1.1" xmlns="http://www.w3.org/2000/svg" xmlns:xlink="http://www.w3.org/1999/xlink" xml:space="preserve" xmlns:serif="http://www.serif.com/" style="fill-rule:evenodd;clip-rule:evenodd;stroke-linecap:square;stroke-miterlimit:1.5;">
    <g id="Aysen" transform="matrix(1,0,0,1,-100.186,-7.09636)">
        <g transform="matrix(1,0,0,1,0,7)">
            <path d="M129.577,421.325L137.657,421.992C137.657,421.992 141.421,423.832 142.642,425.365C143.863,426.899 144,432.669 144,432.669C144,432.669 151.576,432.37 151.667,433.537C151.757,434.704 150.359,438.271 145.758,438.571C141.157,438.872 142.754,438.888 144,441.419C145.246,443.949 150.057,445.884 145.255,454.433C140.454,462.982 146.146,470.976 141.178,480.191C136.21,489.407 137.211,491.042 137.812,498.059C138.412,505.076 136.157,505.604 131.445,511.313C130.094,512.949 128.642,514.941 128.642,514.941L117.13,506.711L114.788,504.827C114.788,504.827 118.646,503.224 118.393,501.511C118.14,499.798 115.418,499.36 115.418,499.36C115.418,499.36 116.036,497.018 116.153,495.302C116.271,493.585 121.619,494.54 121.619,494.54L123.991,494.827L120.242,492.995L121.972,487.567L119.527,492.322L115.428,490.774L117.199,488.838L114.902,490.103L114.952,486.758C114.952,486.758 113.037,486.842 112.738,485.409C112.44,483.977 114.915,482.37 115.768,480.66C116.621,478.949 115.738,475.901 115.738,475.901L110.882,475.902C110.882,475.902 104.438,471.04 102.895,473.853C101.352,476.666 100.817,477.493 100.817,477.493C100.817,477.493 103.448,467.707 104.807,466.382C106.167,465.056 109.063,461.467 109.063,461.467L115.151,454.47C115.151,454.47 121.026,454.049 121.026,458.776C121.026,463.503 119.972,469.747 119.972,469.747L123.155,458.981L124.744,449.042C124.744,449.042 123.654,445.859 127.222,441.678C130.79,437.497 125.597,436.079 127.201,430.991C128.804,425.904 129.577,421.325 129.577,421.325Z" style="fill:rgb(223,223,223);stroke:black;stroke-width:0.7px;"/>
        </g>
        <g transform="matrix(1,0,0,1,0,7)">
            <path d="M114.032,449.607C114.032,449.607 115.884,447.699 117.493,447.986C119.102,448.273 117.792,450.677 114.032,449.607Z" style="fill:rgb(223,223,223);stroke:black;stroke-width:0.7px;"/>
        </g>
        <g transform="matrix(1,0,0,1,0,7)">
            <path d="M111.916,437.376C111.916,437.376 119.395,436.721 119.658,439.817C119.922,442.912 113.528,440.591 113.528,440.591L111.916,437.376Z" style="fill:rgb(223,223,223);stroke:black;stroke-width:0.7px;"/>
        </g>
        <g transform="matrix(1,0,0,1,0,7)">
            <path d="M112.68,444.128C112.68,444.128 120.235,441.96 120.93,443.551C121.625,445.142 120.706,447.078 120.706,447.078L115.918,446.338C115.918,446.338 114.779,448.066 113.049,448.142C111.318,448.218 112.68,444.128 112.68,444.128Z" style="fill:rgb(223,223,223);stroke:black;stroke-width:0.7px;"/>
        </g>
        <g transform="matrix(1,0,0,1,0,7)">
            <path d="M109.707,455.665C109.707,455.665 111.968,452.536 113.549,452.222C115.13,451.908 114.547,454.392 112.987,455.609C111.427,456.825 109.707,455.665 109.707,455.665Z" style="fill:rgb(223,223,223);stroke:black;stroke-width:0.7px;"/>
        </g>
        <g transform="matrix(1,0,0,1,0,7)">
            <path d="M120.004,450.175C120.004,450.175 116.676,451.179 116.465,452.328C116.254,453.477 120.701,455.4 121.789,454.465C122.877,453.53 120.004,450.175 120.004,450.175Z" style="fill:rgb(223,223,223);stroke:black;stroke-width:0.7px;"/>
        </g>
        <g transform="matrix(1,0,0,1,0,6)">
            <path d="M112.573,434.585C112.573,434.585 117.932,436.743 119.127,436.127C120.323,435.511 120.811,434.781 120.811,434.781C120.811,434.781 116.471,431.17 112.573,434.585Z" style="fill:rgb(223,223,223);stroke:black;stroke-width:0.7px;"/>
        </g>
        <g transform="matrix(1,0,0,1,0,7)">
            <path d="M114.688,428.772L115.515,429.235L113.684,429.351L114.688,428.772Z" style="fill:rgb(223,223,223);stroke:black;stroke-width:0.7px;"/>
        </g>
        <g transform="matrix(1,0,0,1,0,7)">
            <path d="M108.97,492.612C108.97,492.612 112.907,493.721 112.622,495.647C112.338,497.573 109.013,496.653 109.013,496.653L107.156,494.157L108.97,492.612Z" style="fill:rgb(223,223,223);stroke:black;stroke-width:0.7px;"/>
        </g>
        <g transform="matrix(1,0,0,1,0,7)">
            <path d="M103.753,497.603C105.788,501.704 105.685,507.465 105.685,507.465L101.144,508.78C101.144,508.78 100.803,499.845 101.658,498.553C102.514,497.261 101.718,493.503 103.753,497.603Z" style="fill:rgb(223,223,223);stroke:black;stroke-width:0.7px;"/>
        </g>
    </g>
    <g id="Magallanes" transform="matrix(1,0,0,1,-100.186,-7.09636)">
        <g transform="matrix(1,0,0,1,-1,8)">
            <path d="M113.983,510.307C113.983,510.307 118.035,526.478 115.226,527.029C112.416,527.579 111.083,522.975 111.083,522.975L108.558,525.142C108.558,525.142 107.787,518.47 109.055,513.519C110.323,508.568 111.858,507.798 111.858,507.798L113.983,510.307Z" style="fill:rgb(223,223,223);stroke:black;stroke-width:0.7px;"/>
        </g>
        <g transform="matrix(1,0,0,1,-1,8)">
            <path d="M116.972,507.241L115.739,510.655C115.739,510.655 117.731,523.643 117.807,525.776C117.883,527.908 118.231,527.316 118.231,527.316L119.179,530.254C119.179,530.254 117.188,530.739 118.723,534.812C120.258,538.885 115.836,536.979 115.836,536.979L118.4,540.554L119.711,543.509C119.711,543.509 119.306,543.898 122.857,547.072C126.409,550.247 125.622,548.533 125.622,548.533L122.722,550.857C122.722,550.857 122.382,551.3 124.782,553.288C127.181,555.276 125.772,558.578 128.277,559.722C130.782,560.866 133.383,553.663 133.383,553.663L136.571,552.687L137.684,554.951L134.506,554.55L135.795,557.829L133.868,557.301C133.868,557.301 129.969,561.391 128.003,560.831C126.038,560.271 126.397,566.37 127.172,569.333C127.948,572.296 131.17,574.481 131.17,574.481L133.341,572.709L134.148,575.752C134.148,575.752 129.172,577.27 132.466,578.029C135.759,578.789 138.591,582.231 139.521,581.163C140.451,580.095 148.202,587.96 150.974,585.808C153.745,583.657 153.85,574.565 153.966,572.562C154.083,570.558 160.631,566.227 160.631,566.227C160.631,566.227 165.349,564.91 165.798,563.885C166.248,562.86 167.954,558.827 169.903,559.993C171.852,561.16 176.768,562.325 176.768,562.325C176.768,562.325 165.973,558.399 163.694,557.871C161.415,557.344 142.264,556.738 142.264,556.738C142.264,556.738 137.014,552.335 137.601,548.851C138.189,545.368 140.588,537.063 138.046,536.001C135.504,534.939 129.42,537.056 128.974,537.961C128.527,538.867 126.616,528.524 126.69,526.314C126.764,524.105 130.151,515.306 130.151,515.306L116.972,507.241Z" style="fill:rgb(223,223,223);stroke:black;stroke-width:0.7px;"/>
        </g>
        <g transform="matrix(1,0,0,1,-1,8)">
            <path d="M112.662,540.745C112.662,540.745 109.193,550.434 111.58,551.004C113.967,551.574 117.974,546.262 117.974,546.262L116.302,539.931C116.302,539.931 112.966,539.856 112.662,540.745Z" style="fill:rgb(223,223,223);stroke:black;stroke-width:0.7px;"/>
        </g>
        <g transform="matrix(1,0,0,1,-1,8)">
            <path d="M120.458,558.751C122.746,559.717 123.18,562.934 123.18,562.934L119.78,561.88C119.78,561.88 118.17,557.786 120.458,558.751Z" style="fill:rgb(223,223,223);stroke:black;stroke-width:0.7px;"/>
        </g>
        <g transform="matrix(1,0,0,1,-1,8)">
            <path d="M114.149,558.398L115.389,561.921C115.389,561.921 117.296,558.968 117.388,558.497C117.481,558.025 115.901,555.657 115.21,556.353C114.52,557.05 114.149,558.398 114.149,558.398" style="fill:rgb(223,223,223);stroke:black;stroke-width:0.7px;"/>
        </g>
        <g transform="matrix(1,0,0,1,-1,8)">
            <path d="M129.206,584.685C129.206,584.685 131.313,590.701 134.63,590.701C137.947,590.701 141.241,585.897 141.241,585.897L135.58,581.164C135.58,581.164 112.905,564.153 129.206,584.685Z" style="fill:rgb(223,223,223);stroke:black;stroke-width:0.7px;"/>
        </g>
        <g transform="matrix(1,0,0,1,-1,8)">
            <path d="M174.804,567.404L174.918,601.698C174.918,601.698 167.648,601.236 163.309,601.035C158.971,600.835 153.099,598.35 150.525,597.818C147.951,597.286 143.069,597.519 143.069,597.519C143.069,597.519 154.256,595.133 155.886,593.203C157.516,591.274 156.894,581.454 156.894,581.454L161.324,590.61C161.324,590.61 162.296,581.332 165.368,580.196C168.441,579.06 163.175,579.678 159.618,579.002C156.061,578.325 156.345,575.09 161.478,569.749C166.611,564.408 167.8,563.955 167.8,563.955C167.8,563.955 173.886,566.048 174.804,567.404Z" style="fill:rgb(223,223,223);stroke:black;stroke-width:0.7px;"/>
        </g>
        <g transform="matrix(1,0,0,1,-1,8)">
            <path d="M109.24,529.41C111.284,531.433 110.734,536.483 108.485,539.257C106.236,542.031 105.071,533.539 109.24,529.41" style="fill:rgb(223,223,223);stroke:black;stroke-width:0.7px;"/>
        </g>
        <path d="M174.414,602.566C174.414,602.566 177.052,603.326 177.255,607.866C177.457,612.405 178.994,613.635 178.994,613.635L170.934,611.912L174.661,609.756L174.414,602.566Z" style="fill:rgb(223,223,223);stroke:black;stroke-width:0.7px;"/>
        <path d="M181.421,601.729C181.421,601.729 177.291,602.407 178.475,604.158C179.659,605.909 186.901,608.308 186.901,608.308C186.901,608.308 188.922,605.268 188.01,603.647C187.098,602.026 181.421,601.729 181.421,601.729Z" style="fill:rgb(223,223,223);stroke:black;stroke-width:0.7px;"/>
    </g>
    <g id="AricaParinacota" transform="matrix(1,0,0,1,-100.186,-12.0964)">
        <path d="M154.893,24.148C154.893,24.148 161.529,23.405 162.665,20.422C163.8,17.439 163.148,14.533 163.116,13.799C163.083,13.064 168.42,12.727 168.42,12.727C168.42,12.727 178.432,29.698 175.308,32.943C172.184,36.187 169.329,35.906 169.329,35.906C169.329,35.906 165.379,32.776 160.957,34.837C156.535,36.898 155.747,37.54 155.747,37.54C155.747,37.54 156.552,25.855 154.893,24.148Z" style="fill:rgb(223,223,223);stroke:black;stroke-width:0.7px;"/>
    </g>
    <g id="Tarapacá" transform="matrix(1,0,0,1,-100.186,-11.0964)">
        <path d="M155.91,37.476C155.91,37.476 158.916,42.45 158.736,45.476C158.555,48.503 157.643,55.31 157.553,60.39C157.462,65.471 158.514,69.955 159.233,70.964C159.951,71.973 162.624,70.414 164.597,71.332C166.569,72.25 168.197,73.178 168.197,73.178C168.197,73.178 168.281,71.398 170.851,69.973C173.421,68.548 181.273,65.124 181.07,63.719C180.868,62.314 181.696,58.549 179.644,56.405C177.592,54.261 178.647,51.251 180.122,49.707C181.598,48.163 180.97,46.296 179.954,45.045C178.938,43.794 181.919,39.883 181.919,39.883L175.127,33.168C175.127,33.168 171.547,37.722 169.198,36.625C166.848,35.527 164.651,35.284 162.515,36.128C160.379,36.972 155.91,37.476 155.91,37.476Z" style="fill:rgb(223,223,223);stroke:black;stroke-width:0.7px;"/>
    </g>
    <g id="Antofagasta" transform="matrix(1,0,0,1,-100.186,-10.0964)">
        <path d="M159.027,71.716C159.027,71.716 158.127,91.705 154.978,94.822C151.829,97.939 151.985,96.581 151.843,100.207C151.702,103.834 155.806,104.595 155.418,107.31C155.029,110.025 151.618,121.8 153.563,126.39C155.509,130.979 153.643,132.459 153.643,132.459C153.643,132.459 148.9,140.045 150.98,141.807C153.059,143.57 160.897,139.798 163.441,139.782C165.984,139.765 171.406,138.209 173.831,133.5C176.256,128.79 181.983,130.3 182.595,127.402C183.208,124.503 180.838,121.913 180.838,121.913C180.838,121.913 193.604,111.206 198.203,110.561C202.802,109.916 205.159,94.942 202.254,94.485C199.348,94.028 193.269,97.183 191.782,93.004C190.294,88.825 185.914,67.115 183.347,65.69C180.78,64.265 178.572,67.331 176.005,68.911C173.438,70.492 168.89,73.926 168.89,73.926C168.89,73.926 164.175,72.281 162.07,72.119C159.965,71.957 159.027,71.716 159.027,71.716Z" style="fill:rgb(223,223,223);stroke:black;stroke-width:0.7px;"/>
    </g>
    <g id="Atacama" transform="matrix(1,0,0,1,-100.186,-10.0964)">
        <path d="M151.257,143.051C151.257,143.051 158.33,142.709 160.454,141.404C162.578,140.098 171.284,139.952 172.838,137.443C174.393,134.933 180.009,130.614 181.851,131.043C183.693,131.472 183.954,143.458 182.763,144.751C181.573,146.044 180.246,148.704 180.246,148.704L184.476,156.802C184.476,156.802 180.431,159.303 177.786,158.39C175.141,157.478 175.663,163.554 173.272,168.036C170.882,172.519 165.4,180.473 164.629,183.574C163.858,186.676 164.29,190.003 164.29,190.003C164.29,190.003 163.094,196.14 159.965,195.425C156.835,194.71 154.509,191.95 154.509,191.95C154.509,191.95 154.186,187.98 151.223,189.718C148.26,191.456 140.938,192.977 140.547,190.717C140.156,188.456 141.646,184.296 144,179.88C146.354,175.463 145.5,168.124 148.425,160.154C151.35,152.185 152.891,148.52 151.994,146.805C151.098,145.091 151.257,143.051 151.257,143.051Z" style="fill:rgb(223,223,223);stroke:black;stroke-width:0.7px;"/>
    </g>
    <g id="Coquimbo" transform="matrix(1,0,0,1,-100.186,-10.0964)">
        <path d="M141.787,193.225C141.787,193.225 147.967,192.147 150.239,191.522C152.51,190.897 153.521,191.061 154.988,193.474C156.454,195.886 160.162,196.575 161.847,196.306C163.531,196.036 165.17,203.935 162.381,206.86C159.592,209.785 157.419,213.547 157.143,216.007C156.866,218.467 156.344,219.626 154.522,220.622C152.7,221.618 153.586,225.707 153.586,225.707C153.586,225.707 157.351,232.878 157.549,234.963C157.748,237.049 156.239,238.112 156.239,238.112C156.239,238.112 153.27,233.901 149.466,234.848C145.663,235.794 142.108,238.733 141.055,237.913C140.002,237.093 136.847,210.687 139.085,208.018C141.323,205.349 144.502,201.282 144,198.686C143.498,196.091 141.787,193.225 141.787,193.225Z" style="fill:rgb(223,223,223);stroke:black;stroke-width:0.7px;"/>
    </g>
    <g id="Valparaíso" transform="matrix(1,0,0,1,-100.186,-10.0964)">
        <path d="M141.786,239.591C141.786,239.591 148.898,234.558 151.052,235.901C153.207,237.243 156.699,238.138 156.699,238.138C156.699,238.138 162.526,248.066 160.378,250.399C158.23,252.732 156.27,252.449 155.136,250.985C154.001,249.522 150.13,248.182 148.41,251.515C146.69,254.847 144,255.702 144,255.702C144,255.702 143.474,260.332 142.514,261.97C141.553,263.608 138.974,265.285 138.974,265.285C138.974,265.285 137.169,264.888 139.571,260.663C141.972,256.438 138.099,255.293 139.712,251.731C141.325,248.169 142.723,243.742 141.786,239.591Z" style="fill:rgb(223,223,223);stroke:black;stroke-width:0.7px;"/>
    </g>
    <g id="Metropolitana" transform="matrix(1,0,0,1,-99.1856,-9.09636)">
        <path d="M139.264,265.858C139.264,265.858 142.957,266.178 144,266.506C145.043,266.835 147.788,270.654 149.618,268.359C151.449,266.063 156.72,263.223 157.279,264.964C157.837,266.704 161.109,271.404 162.748,270.226C164.388,269.048 165.303,265.601 164.874,263.769C164.445,261.937 165.006,255.062 165.006,255.062L161.273,253.959C161.273,253.959 162.495,248.299 161.041,249.563C159.587,250.827 156.767,253.322 155.714,252.112C154.661,250.902 150.657,249.224 149.02,250.919C147.383,252.614 146.9,255.659 144,256.147C141.1,256.636 145.811,261.5 139.264,265.858Z" style="fill:rgb(223,223,223);stroke:black;stroke-width:0.7px;"/>
    </g>
    <g id="Ohiggins" transform="matrix(1,0,0,1,-99.1856,-8.09636)">
        <path d="M137.292,265.198C137.292,265.198 134.252,271.078 135.176,276.584C136.099,282.09 140.506,280.389 140.506,280.389C140.506,280.389 143.134,278.312 146.65,278.731C150.166,279.15 155.831,282.899 157.028,281.963C158.224,281.027 162.127,271.124 162.127,271.124L157.483,266.185C157.483,266.185 155.371,264.682 150.358,268.009C145.345,271.336 145.434,266.768 144,266.747C142.566,266.727 137.292,265.198 137.292,265.198Z" style="fill:rgb(223,223,223);stroke:black;stroke-width:0.7px;"/>
    </g>
    <g id="Maule" transform="matrix(1,0,0,1,-101.186,-7.09636)">
        <path d="M134.802,278.441C134.802,278.441 132.248,287.623 129.566,289.602C126.885,291.581 129.714,294.113 128.739,295.54C127.765,296.966 126.516,298.737 126.516,298.737C126.516,298.737 132.64,303.14 134.417,301.819C136.194,300.499 141.776,304.067 144,305.247C146.224,306.428 149.505,303.889 149.505,303.889C149.505,303.889 152.277,305.86 155.302,301.663C158.327,297.466 156.952,289.638 156.055,287.337C155.159,285.035 157.63,282.322 157.63,282.322C157.63,282.322 148.752,278.666 146.897,278.93C145.043,279.194 140.323,282.589 138.491,281.185C136.659,279.782 134.802,278.441 134.802,278.441Z" style="fill:rgb(223,223,223);stroke:black;stroke-width:0.7px;"/>
    </g>
    <g id="Ñuble" transform="matrix(1,0,0,1,-100.186,-6.09636)">
        <path d="M126.666,298.691C126.666,298.691 125.678,304.626 125.629,306.199C125.579,307.772 129.548,310.733 129.931,312.078C130.314,313.422 136.001,314.518 134.52,316.402C133.039,318.286 141.453,316.032 142.527,314.44C143.602,312.848 146.979,316.5 148.623,316.094C150.268,315.687 149.374,306.296 149.374,306.296L148.454,304.402C148.454,304.402 144.322,305.606 140.974,303.794C137.626,301.983 134.765,303.273 132.193,302.803C129.621,302.333 126.666,298.691 126.666,298.691Z" style="fill:rgb(223,223,223);stroke:black;stroke-width:0.7px;"/>
    </g>
    <g id="Biobio" transform="matrix(1,0,0,1,-101.186,-5.09636)">
        <path d="M125.279,306.855C125.279,306.855 122.385,306.478 122.066,314.407C121.747,322.336 117.627,317.515 115.679,318.513C113.73,319.51 118.199,323.317 117.522,326.927C116.846,330.538 120.607,331.161 118.822,335.553C117.036,339.945 120.153,337.932 120.153,337.932L123.775,331.883C123.775,331.883 121.668,327.409 125.008,324.911C128.349,322.413 130.829,326.991 135.61,329.288C140.39,331.586 141.594,332.786 141.008,334.897C140.422,337.007 147.267,329.637 149.301,331.164C151.335,332.692 146.873,322.7 147.972,320C149.071,317.3 146.818,315.877 146.818,315.877C146.818,315.877 140.834,316.191 136.639,317.753C132.443,319.315 133.616,316.788 133.616,316.788L132.558,314.184L125.279,306.855Z" style="fill:rgb(223,223,223);stroke:black;stroke-width:0.7px;"/>
    </g>
    <g id="Araucanía" transform="matrix(1,0,0,1,-101.186,-4.09636)">
        <path d="M118.955,339.164C118.955,339.164 123.722,348.543 123.612,352.837C123.502,357.13 125.958,351.463 129.722,352.687C133.487,353.911 143.386,354.426 144,356.006C144.614,357.586 144.886,347.764 144,344.176C143.114,340.587 152.272,342.278 151.681,339.013C151.089,335.748 151.68,331.032 149.358,331.49C147.036,331.949 140.989,335.883 140.989,335.883C140.989,335.883 141.699,333.973 140.035,332.636C138.372,331.298 127.821,324.301 126.07,325.363C124.319,326.426 124.327,332.548 124.327,332.548L118.955,339.164Z" style="fill:rgb(223,223,223);stroke:black;stroke-width:0.7px;"/>
    </g>
    <g id="Rios" transform="matrix(1,0,0,1,-101.186,-3.09636)">
        <path d="M122.569,354.156C122.569,354.156 120.293,361.976 118.19,364.025C116.088,366.074 124.188,367.941 126.399,367.919C128.611,367.898 131.209,374.249 136.78,372.286C142.351,370.322 141.517,365.057 141.517,365.057L144,358.525C144,358.525 143.375,354.807 139.749,354.807C136.122,354.807 129.494,353.291 129.494,353.291L124.598,354.936L122.569,354.156Z" style="fill:rgb(223,223,223);stroke:black;stroke-width:0.7px;"/>
    </g>
    <g id="Lagos" transform="matrix(1,0,0,1,-100.186,-7.09636)">
        <g id="Lagos1" transform="matrix(1,0,0,1,0,5)">
            <path d="M117.889,366.694C117.889,366.694 115.18,376.939 116.029,379.65C116.877,382.36 118.631,388.622 119.476,389.909C120.322,391.197 125.291,391.472 126.271,390.605C127.251,389.739 126.823,384.379 129.521,385.974C132.219,387.569 132.613,388.45 131.947,390.521C131.281,392.592 128.662,393.812 132.101,394.634C135.54,395.455 130.269,396.033 130.227,398.747C130.184,401.461 132.495,402.19 132.495,402.19C132.495,402.19 130.13,402.409 130.399,404.652C130.668,406.895 131.617,410.618 131.617,410.618L130.269,410.519C130.269,410.519 130.23,413.665 129.705,414.679C129.18,415.692 128.042,415.573 128.277,418.163C128.513,420.753 132.194,422.487 132.194,422.487C132.194,422.487 136.527,421.652 137.086,420.582C137.645,419.511 139.76,425.182 142.132,424.456C144.505,423.73 144,421.374 144,421.374C144,421.374 141.577,419.221 141.66,416.965C141.742,414.709 143.169,412.567 143.169,412.567C143.169,412.567 139.248,409.882 139.248,402.154C139.248,400.745 138.565,398.488 140.056,394.908C141.546,391.329 140.634,387.849 140.394,383.74C140.155,379.631 140.059,370.597 140.059,370.597L132.97,373.087C132.97,373.087 129.139,370.716 127.437,369.242C125.736,367.768 117.889,366.694 117.889,366.694Z" style="fill:rgb(223,223,223);stroke:black;stroke-width:0.7px;"/>
        </g>
        <g id="Lagos2" transform="matrix(1,0,0,1,0,5)">
            <path d="M116.698,391.695C116.698,391.695 118.822,392.357 120.666,391.428C122.51,390.5 123.666,398.658 123.666,398.658C123.666,398.658 120.064,400.531 119.852,402.139C119.64,403.747 124.178,410.022 124.178,410.022C124.178,410.022 119.481,417.674 117.609,417.484C115.737,417.295 112.772,414.657 112.772,414.657C112.772,414.657 115.958,405.533 115.38,403.69C114.803,401.847 113.89,400.061 114.884,397.504C115.878,394.947 116.698,391.695 116.698,391.695Z" style="fill:rgb(223,223,223);stroke:black;stroke-width:0.7px;"/>
        </g>
    </g>
</svg>
